<svg xmlns="http://www.w3.org/2000/svg" viewBox="0 0 500 500"><g id="freepik--background-simple--inject-76"><path d="M340.69,47.11S63.5,88.77,29.85,161.67,82.72,386.79,133.2,429.25,400,430.06,448.85,366,466.47,27.88,340.69,47.11Z" style="fill:#008080"></path><path d="M340.69,47.11S63.5,88.77,29.85,161.67,82.72,386.79,133.2,429.25,400,430.06,448.85,366,466.47,27.88,340.69,47.11Z" style="fill:#fff;opacity:0.7000000000000001"></path></g><g id="freepik--Balloons--inject-76"><path d="M217.74,248.4c0,13.37-11.15,34.52-20.75,34.52-8,0-20.75-21.15-20.75-34.52s9.29-24.21,20.75-24.21S217.74,235,217.74,248.4Z" style="fill:#263238;stroke:#263238;stroke-linecap:round;stroke-linejoin:round"></path><polyline points="196.41 283.56 196.61 288.41 200.65 287.4 196.99 282.92" style="fill:#263238;stroke:#263238;stroke-linecap:round;stroke-linejoin:round"></polyline><path d="M211.8,233.88c2.45,3.68,2.38,8-.14,9.69s-6.55.05-9-3.63-2.38-8,.15-9.69S209.36,230.2,211.8,233.88Z" style="fill:#fff"></path><path d="M200.6,228.8c-.16.82-1.31,1.28-2.57,1s-2.15-1.12-2-1.94,1.31-1.28,2.57-1S200.76,228,200.6,228.8Z" style="fill:#fff"></path><path d="M198.25,285.41a53,53,0,0,0-1.48,9.12c-.19,2.17-.22,4.35-.21,6.54a19.45,19.45,0,0,0,.33,4.7,24.17,24.17,0,0,0,3.34,6.63,62.47,62.47,0,0,1,4.56,8,25.33,25.33,0,0,1,1.52,4.55,20.34,20.34,0,0,1,.4,2.46c0,.27,0,.53.07.8.08.89,0-.62,0-.67-.11.62-.08,1.29-.16,1.91-.61,4.61-2.83,8.61-5.34,12.43-2.31,3.51-4.78,6.9-7.23,10.31a45.44,45.44,0,0,0-4.5,7.15,24.89,24.89,0,0,0-2.15,9,95.73,95.73,0,0,0,.21,13.44c0-.6.06-1.66,0-2.41-.47-6.48-.58-13,2.6-18.84a64.76,64.76,0,0,1,4.64-7c2.41-3.31,4.78-6.65,7-10.08a26.06,26.06,0,0,0,4.48-20.76c-1.22-5.75-4.79-10.36-7.65-15.34a19.26,19.26,0,0,1-1.63-3.47,14.83,14.83,0,0,1-.41-5.67,53.48,53.48,0,0,1,1.57-10.37c.21-.78-.21-1.72,0-2.5Z" style="fill:#263238"></path><path d="M75.12,96.2c0,13.37-11.15,34.52-20.75,34.52-8,0-20.75-21.15-20.75-34.52S42.91,72,54.37,72,75.12,82.83,75.12,96.2Z" style="fill:#263238;stroke:#263238;stroke-linecap:round;stroke-linejoin:round"></path><polyline points="53.79 131.36 53.99 136.2 58.03 135.19 54.37 130.72" style="fill:#263238;stroke:#263238;stroke-linecap:round;stroke-linejoin:round"></polyline><path d="M69.19,81.67c2.44,3.68,2.37,8-.15,9.69s-6.55,0-9-3.63-2.37-8,.15-9.69S66.74,78,69.19,81.67Z" style="fill:#fff"></path><path d="M58,76.6c-.16.82-1.31,1.28-2.57,1s-2.14-1.12-2-1.94,1.31-1.28,2.57-1S58.15,75.78,58,76.6Z" style="fill:#fff"></path><path d="M55.63,133.21a53.91,53.91,0,0,0-1.48,9.11c-.18,2.18-.22,4.36-.21,6.54a19.57,19.57,0,0,0,.33,4.71,24.14,24.14,0,0,0,3.35,6.62,61.86,61.86,0,0,1,4.55,8.05,25,25,0,0,1,1.52,4.54,20.66,20.66,0,0,1,.4,2.46c0,.27,0,.54.07.81.08.88,0-.63,0-.68-.11.62-.08,1.29-.16,1.92-.61,4.6-2.82,8.6-5.34,12.43-2.3,3.51-4.78,6.9-7.23,10.3a45.08,45.08,0,0,0-4.5,7.16,25.09,25.09,0,0,0-2.15,9A97.22,97.22,0,0,0,45,229.6c0-.59.06-1.65,0-2.41-.47-6.47-.58-13,2.6-18.83a64.88,64.88,0,0,1,4.64-7c2.41-3.31,4.79-6.64,7-10.08a26.06,26.06,0,0,0,4.48-20.76c-1.22-5.75-4.78-10.35-7.64-15.34a18.87,18.87,0,0,1-1.64-3.46,14.88,14.88,0,0,1-.41-5.68,53.38,53.38,0,0,1,1.57-10.36c.21-.78-.2-1.73,0-2.5Z" style="fill:#263238"></path><path d="M470.11,145.86c0,13.37-11.16,34.52-20.76,34.52-8,0-20.75-21.15-20.75-34.52s9.29-24.21,20.75-24.21S470.11,132.49,470.11,145.86Z" style="fill:#263238;stroke:#263238;stroke-linecap:round;stroke-linejoin:round"></path><polyline points="448.77 181.02 448.97 185.86 453.01 184.85 449.35 180.38" style="fill:#263238;stroke:#263238;stroke-linecap:round;stroke-linejoin:round"></polyline><path d="M464.17,131.33c2.44,3.68,2.37,8-.15,9.69s-6.55,0-9-3.63-2.37-8,.15-9.69S461.73,127.65,464.17,131.33Z" style="fill:#fff"></path><path d="M453,126.26c-.16.82-1.31,1.28-2.57,1s-2.14-1.12-2-1.94,1.31-1.28,2.57-1S453.13,125.43,453,126.26Z" style="fill:#fff"></path><path d="M450.61,182.87a53.91,53.91,0,0,0-1.48,9.11c-.18,2.18-.22,4.36-.21,6.54a19.57,19.57,0,0,0,.33,4.71,24.28,24.28,0,0,0,3.35,6.62,62.41,62.41,0,0,1,4.55,8,25.33,25.33,0,0,1,1.52,4.55,18.54,18.54,0,0,1,.4,2.46c0,.27,0,.54.07.8.08.89,0-.62,0-.67-.11.62-.08,1.29-.16,1.91-.61,4.61-2.82,8.61-5.34,12.43-2.3,3.51-4.77,6.9-7.23,10.31a45.08,45.08,0,0,0-4.5,7.16,25.09,25.09,0,0,0-2.15,9,97.24,97.24,0,0,0,.21,13.44c0-.59.06-1.66,0-2.41-.47-6.47-.58-13,2.6-18.83a63.51,63.51,0,0,1,4.65-7c2.4-3.31,4.78-6.64,7-10.08a26.06,26.06,0,0,0,4.48-20.76c-1.21-5.75-4.78-10.36-7.64-15.34a18.87,18.87,0,0,1-1.64-3.46,14.88,14.88,0,0,1-.41-5.68,53.26,53.26,0,0,1,1.57-10.36c.21-.79-.2-1.73,0-2.5Z" style="fill:#263238"></path><path d="M376.51,51.56c0,13.37-11.16,34.52-20.75,34.52-8,0-20.76-21.15-20.76-34.52s9.3-24.21,20.76-24.21S376.51,38.19,376.51,51.56Z" style="fill:#263238;stroke:#263238;stroke-linecap:round;stroke-linejoin:round"></path><polyline points="355.17 86.72 355.37 91.57 359.41 90.56 355.75 86.08" style="fill:#263238;stroke:#263238;stroke-linecap:round;stroke-linejoin:round"></polyline><path d="M370.57,37c2.44,3.68,2.37,8-.15,9.69s-6.55.05-9-3.63-2.37-8,.15-9.69S368.13,33.36,370.57,37Z" style="fill:#fff"></path><path d="M359.36,32c-.16.82-1.31,1.29-2.57,1s-2.14-1.12-2-1.94,1.31-1.28,2.57-1S359.53,31.14,359.36,32Z" style="fill:#fff"></path><path d="M357,88.57a54,54,0,0,0-1.48,9.12c-.18,2.17-.22,4.35-.21,6.54a19.57,19.57,0,0,0,.33,4.71,24.28,24.28,0,0,0,3.35,6.62,62.41,62.41,0,0,1,4.55,8,25.33,25.33,0,0,1,1.52,4.55,18.54,18.54,0,0,1,.4,2.46c0,.27,0,.53.07.8.08.89,0-.62,0-.67-.11.62-.08,1.29-.16,1.91-.61,4.61-2.82,8.61-5.34,12.43-2.3,3.51-4.77,6.9-7.23,10.31a45.44,45.44,0,0,0-4.5,7.15,25.1,25.1,0,0,0-2.15,9,97.24,97.24,0,0,0,.21,13.44c0-.59.07-1.66,0-2.41-.46-6.48-.58-13,2.6-18.84a64.35,64.35,0,0,1,4.65-7c2.4-3.31,4.78-6.65,7-10.08a26.06,26.06,0,0,0,4.48-20.76c-1.21-5.75-4.78-10.36-7.64-15.34a18.65,18.65,0,0,1-1.64-3.47,14.83,14.83,0,0,1-.41-5.67A54.25,54.25,0,0,1,357,91.07c.21-.78-.2-1.72,0-2.5Z" style="fill:#263238"></path><path d="M200.92,30.49c0,13.37-11.15,34.52-20.75,34.52-8,0-20.75-21.15-20.75-34.52s9.29-24.21,20.75-24.21S200.92,17.12,200.92,30.49Z" style="fill:#263238;stroke:#263238;stroke-linecap:round;stroke-linejoin:round"></path><polyline points="179.58 65.65 179.78 70.5 183.82 69.49 180.17 65.01" style="fill:#263238;stroke:#263238;stroke-linecap:round;stroke-linejoin:round"></polyline><path d="M195,16c2.44,3.68,2.37,8-.15,9.7s-6.54,0-9-3.63-2.37-8,.15-9.7S192.54,12.29,195,16Z" style="fill:#fff"></path><path d="M183.78,10.89c-.17.82-1.32,1.28-2.58,1s-2.14-1.11-2-1.93,1.32-1.29,2.57-1S183.94,10.07,183.78,10.89Z" style="fill:#fff"></path><path d="M181.42,67.5A54.05,54.05,0,0,0,180,76.61c-.19,2.18-.22,4.36-.21,6.54a19,19,0,0,0,.32,4.71,24.2,24.2,0,0,0,3.35,6.63,62.41,62.41,0,0,1,4.55,8,24.6,24.6,0,0,1,1.53,4.55,20.34,20.34,0,0,1,.4,2.46l.06.8c.09.89,0-.63,0-.67-.11.62-.07,1.28-.16,1.91-.61,4.61-2.82,8.6-5.33,12.43-2.31,3.51-4.78,6.9-7.24,10.3a46.28,46.28,0,0,0-4.5,7.16,25.08,25.08,0,0,0-2.14,9,95.73,95.73,0,0,0,.21,13.44c-.05-.6.06-1.66,0-2.42-.46-6.47-.58-13,2.6-18.83a63.38,63.38,0,0,1,4.65-7c2.41-3.32,4.78-6.65,7-10.09a26.14,26.14,0,0,0,4.48-20.75c-1.22-5.75-4.79-10.36-7.65-15.35A19.92,19.92,0,0,1,180.26,86a15.24,15.24,0,0,1-.41-5.67A54.25,54.25,0,0,1,181.42,70c.21-.78-.2-1.72,0-2.5Z" style="fill:#263238"></path><path d="M101.25,71.69c0,13.37-11.15,34.52-20.75,34.52-8,0-20.75-21.15-20.75-34.52S69,47.48,80.5,47.48,101.25,58.32,101.25,71.69Z" style="fill:#008080;stroke:#263238;stroke-linecap:round;stroke-linejoin:round"></path><polyline points="79.91 106.85 80.11 111.7 84.15 110.69 80.5 106.21" style="fill:#263238;stroke:#263238;stroke-linecap:round;stroke-linejoin:round"></polyline><path d="M95.31,57.17c2.44,3.67,2.37,8-.15,9.69s-6.54,0-9-3.63-2.37-8,.15-9.7S92.87,53.49,95.31,57.17Z" style="fill:#fff"></path><path d="M84.11,52.09c-.17.82-1.32,1.28-2.58,1s-2.14-1.11-2-1.93,1.32-1.29,2.57-1S84.27,51.27,84.11,52.09Z" style="fill:#fff"></path><path d="M81.75,111.2a81.89,81.89,0,0,1,12,14c2,3.06,3.65,6.23,3.84,9.93.05.94.11-2.09,0-.77,0,.25,0,.49-.07.73a8.34,8.34,0,0,1-.27,1.3,8.53,8.53,0,0,1-1.08,2.18c-1.49,2.23-3.38,4.22-5,6.33A103,103,0,0,0,82,158.39a21.06,21.06,0,0,0-2.26,5.75,22.42,22.42,0,0,0-.29,5,14,14,0,0,0,2.79,7.77c2.13,3.09,4.7,5.83,6.72,9a30,30,0,0,1,4.56,13.82c-.07-.82.06-1.67,0-2.5a29.7,29.7,0,0,0-3.83-12.61,79.36,79.36,0,0,0-6.14-8.44c-1.79-2.31-3.49-4.82-4-7.77-.06-.4-.12-2-.11-.47s.07-.22.13-.6a16.1,16.1,0,0,1,.67-2.63,30.09,30.09,0,0,1,3.26-6.36,141.34,141.34,0,0,1,8.9-12.44,39.81,39.81,0,0,0,4.28-5.59,11.44,11.44,0,0,0,1-5.7,20.92,20.92,0,0,0-.25-4.18,18.08,18.08,0,0,0-2-5c-3.43-6.23-8.5-11.82-13.65-16.7.12.11,0,1.08,0,1.25s-.14,1.11,0,1.25Z" style="fill:#263238"></path><path d="M316.58,35.26c0,13.37-11.15,34.52-20.75,34.52-8,0-20.75-21.15-20.75-34.52s9.29-24.21,20.75-24.21S316.58,21.89,316.58,35.26Z" style="fill:#008080;stroke:#263238;stroke-linecap:round;stroke-linejoin:round"></path><polyline points="295.24 70.42 295.45 75.27 299.48 74.26 295.83 69.78" style="fill:#263238;stroke:#263238;stroke-linecap:round;stroke-linejoin:round"></polyline><path d="M310.64,20.74c2.44,3.68,2.38,8-.15,9.69s-6.54.05-9-3.63-2.38-8,.14-9.69S308.2,17.06,310.64,20.74Z" style="fill:#fff"></path><path d="M299.44,15.66c-.16.82-1.32,1.29-2.57,1s-2.15-1.12-2-1.94,1.32-1.28,2.58-1S299.6,14.84,299.44,15.66Z" style="fill:#fff"></path><path d="M297.09,74.78a81.76,81.76,0,0,1,12,14c2,3.06,3.66,6.23,3.84,9.93.05.94.12-2.09,0-.76,0,.24,0,.48-.07.72a7.15,7.15,0,0,1-.27,1.3,8.53,8.53,0,0,1-1.08,2.18c-1.49,2.24-3.37,4.22-5,6.34A102.18,102.18,0,0,0,297.31,122a20.72,20.72,0,0,0-2.27,5.76,22.33,22.33,0,0,0-.28,5,13.94,13.94,0,0,0,2.78,7.77c2.13,3.09,4.71,5.83,6.72,9a30,30,0,0,1,4.56,13.83c-.07-.83.06-1.68,0-2.5A29.7,29.7,0,0,0,305,148.18a76.66,76.66,0,0,0-6.14-8.44c-1.78-2.31-3.49-4.82-4-7.77-.06-.4-.11-2-.11-.47s.07-.21.13-.6a16.1,16.1,0,0,1,.67-2.63,30.09,30.09,0,0,1,3.26-6.36,143.45,143.45,0,0,1,8.9-12.44,39.24,39.24,0,0,0,4.28-5.59,11.42,11.42,0,0,0,1-5.69,21.59,21.59,0,0,0-.24-4.18,18.16,18.16,0,0,0-2-5c-3.43-6.24-8.49-11.82-13.64-16.7.11.1,0,1.07,0,1.25s-.14,1.1,0,1.25Z" style="fill:#263238"></path><path d="M420,68.68c0,13.37-11.15,34.52-20.75,34.52-8,0-20.75-21.15-20.75-34.52s9.29-24.21,20.75-24.21S420,55.31,420,68.68Z" style="fill:#008080;stroke:#263238;stroke-linecap:round;stroke-linejoin:round"></path><polyline points="398.69 103.84 398.89 108.69 402.93 107.68 399.28 103.2" style="fill:#263238;stroke:#263238;stroke-linecap:round;stroke-linejoin:round"></polyline><path d="M414.09,54.16c2.44,3.68,2.38,8-.15,9.69s-6.54,0-9-3.63-2.38-8,.14-9.69S411.65,50.48,414.09,54.16Z" style="fill:#fff"></path><path d="M402.89,49.08c-.17.82-1.32,1.29-2.57,1s-2.15-1.12-2-1.94,1.32-1.28,2.58-1S403.05,48.26,402.89,49.08Z" style="fill:#fff"></path><path d="M400.54,108.19a82.27,82.27,0,0,1,12,14c2,3.06,3.65,6.23,3.84,9.93,0,.94.11-2.09,0-.76,0,.24,0,.48-.07.72a8.11,8.11,0,0,1-.27,1.3,8.53,8.53,0,0,1-1.08,2.18c-1.49,2.24-3.37,4.22-5,6.34a103.23,103.23,0,0,0-9.2,13.43,21.06,21.06,0,0,0-2.26,5.75,22.45,22.45,0,0,0-.28,5,13.94,13.94,0,0,0,2.78,7.77c2.13,3.09,4.71,5.83,6.72,9a30,30,0,0,1,4.56,13.83c-.07-.83.06-1.68,0-2.5a29.7,29.7,0,0,0-3.83-12.62,78,78,0,0,0-6.14-8.44c-1.78-2.31-3.49-4.82-4-7.77-.06-.4-.12-2-.11-.47s.07-.22.13-.6a16.1,16.1,0,0,1,.67-2.63,30.09,30.09,0,0,1,3.26-6.36,141.34,141.34,0,0,1,8.9-12.44,39.24,39.24,0,0,0,4.28-5.59,11.42,11.42,0,0,0,1-5.69,20.83,20.83,0,0,0-.25-4.18,17.84,17.84,0,0,0-2-5c-3.43-6.24-8.5-11.82-13.64-16.71a4.79,4.79,0,0,1,0,1.25c0,.21-.14,1.11,0,1.25Z" style="fill:#263238"></path></g><g id="freepik--Shadow--inject-76"><path d="M456.86,478.12c0,4-92.54,7.22-206.7,7.22s-206.69-3.23-206.69-7.22,92.54-7.21,206.69-7.21S456.86,474.14,456.86,478.12Z" style="fill:#263238"></path></g><g id="freepik--character-3--inject-76"><path d="M381.81,151.16s.94-6.23,12.93-6.85,16.68,10.75,16.52,13.71-.78,4.52.62,5.92,9.67,4.83,7.8,10.13-4.06,5.76-2.65,7.17,6.85,3.27,2.18,7.47-6.55,4.06-6.08,5.3,4.05,3.9,1.71,5.77a12.49,12.49,0,0,1-5.14,2.34s-1.87,5.76-3.58,6.54-4.52-.93-4.83.62.93,3.28-3.74,3.12-5.3-3.58-6.86-3.12-3.74,1.41-4.83-.78-.47-3.42-1.87-4.05-6.54-2.49-7.32-5,1.4-6.39.31-8.11-4.67-4.05-3.9-6.85,6.86-5.77,4.37-7.79-4.52-8.26-3.27-10,1.87-3.42,1.09-3.89-4.52-2.34-3-6.7S377.45,150.07,381.81,151.16Z" style="fill:#263238;stroke:#263238;stroke-linecap:round;stroke-linejoin:round"></path><path d="M357.94,329.88s-3.69,17.17-3.69,21.3,4.78,38.24,5.21,48.46,5,40.63,5.65,43.24,2.39,21.29.44,26.51-4.25,8.18-5.87,6.08c-3.69-4.78.65-25.86.65-25.86s-25.86-71.92-29.12-81.7-5-23.69-5-34.33a173.49,173.49,0,0,0-1.09-19.34Z" style="fill:#fff;stroke:#263238;stroke-linecap:round;stroke-linejoin:round"></path><polygon points="352.07 331.37 326.94 325.55 353.26 326.47 352.07 331.37" style="fill:#263238;stroke:#263238;stroke-linecap:round;stroke-linejoin:round"></polygon><path d="M359.68,475.47c-1.39-1.8-1.64-5.91-1.41-10.34a6.46,6.46,0,0,0,1,2.3c1.08,1.09,3.25.65,4.78.65s2-9.77,2-9.77l.3-3.75c.3,5.82.28,12.13-.73,14.83C363.59,474.6,361.3,477.57,359.68,475.47Z" style="fill:#263238;stroke:#263238;stroke-linecap:round;stroke-linejoin:round"></path><path d="M388.09,330.67s-22.45,45.74-21,47.63,13.64,18.46,14.27,26.44,9.44,33.57,11.75,42.17,3.15,10.71,2.52,16.37-3.36,14.27-5.88,12.38-3.57-8.39-4-14.48-.42-14.9-.42-14.9-8-19.51-15.52-30.21-14.9-21.19-17.21-29.59-5.24-8.18-4.2-20.35c.26-2.93,4.83-39.66,4.83-39.66Z" style="fill:#fff;stroke:#263238;stroke-linecap:round;stroke-linejoin:round"></path><polygon points="384.81 336.87 355.56 329.08 385.55 333.54 384.81 336.87" style="fill:#263238;stroke:#263238;stroke-linecap:round;stroke-linejoin:round"></polygon><path d="M393.76,465a28.79,28.79,0,0,0,1.3-10.76,23.1,23.1,0,0,1,.59,9.08c-.63,5.67-3.36,14.27-5.88,12.38-2.1-1.58-3.18-6.37-3.72-11.45Z" style="fill:#263238;stroke:#263238;stroke-linecap:round;stroke-linejoin:round"></path><path d="M386.34,271.39s7.84,16.05,11.85,27,2.37,19.7.18,24.62-10,10.22-10,10.22l-63.29-7.85s-9.84-18.24-7.11-29.18,12.59-25.53,17.51-31.37,7.84-6.75,7.84-6.75Z" style="fill:#008080;stroke:#263238;stroke-linecap:round;stroke-linejoin:round"></path><line x1="332.85" y1="315.83" x2="329.06" y2="315.94" style="fill:none;stroke:#263238;stroke-linecap:round;stroke-linejoin:round"></line><line x1="372.82" y1="314.73" x2="336.56" y2="315.73" style="fill:none;stroke:#263238;stroke-linecap:round;stroke-linejoin:round"></line><line x1="346.72" y1="309.85" x2="325.13" y2="314.24" style="fill:none;stroke:#263238;stroke-linecap:round;stroke-linejoin:round"></line><line x1="350.34" y1="309.11" x2="348.87" y2="309.41" style="fill:none;stroke:#263238;stroke-linecap:round;stroke-linejoin:round"></line><path d="M334.9,172.18c3.41-6.05,38.58-59.76,38.58-59.76s-4.08-7-5-9.43-.88-7.58-.88-12.38c0-3.18,2.12-.71,2.12-.71s1.59-2.12,2.12-1.24c.21.35.59,1,1,1.73.32-.41.87-.84,1.34.22.71,1.59,4.77,9.9,4.77,9.9a54.93,54.93,0,0,1-.7-5.48c0-1.42,1.06-1.77,2.12.35s1.24,4.42,1.41,7.25.89,3.89-.17,6.54-4.78,9.2-4.78,9.2l-27.54,57.22,11,25.72-9.45,17S331.5,178.23,334.9,172.18Z" style="fill:#fff;stroke:#263238;stroke-linecap:round;stroke-linejoin:round"></path><path d="M376.11,112.53s1.6-3.89.36-5.48a30.35,30.35,0,0,0-4.78-4.06l-1.94-5.31S369,92.91,368,93.26" style="fill:none;stroke:#263238;stroke-linecap:round;stroke-linejoin:round"></path><line x1="372.83" y1="90.39" x2="376.47" y2="100.51" style="fill:none;stroke:#263238;stroke-linecap:round;stroke-linejoin:round"></line><path d="M369.75,89.9s1.94,8.14,3.36,11" style="fill:none;stroke:#263238;stroke-linecap:round;stroke-linejoin:round"></path><path d="M388.52,197.52l-4,13.5s12.77,6.93,15.5,8.39,6.94,11.12,3.29,21-15.87,22.43-16.05,23.53-.91,7.48-.91,7.48l-43-13.32,2.74-7.66s-1.1-23.34,1.46-27.9,12.75-21.2,12.75-21.2l9.43,4.34,4.26-9.22Z" style="fill:#fff;stroke:#263238;stroke-linecap:round;stroke-linejoin:round"></path><path d="M346,250.41s-1.1-23.34,1.46-27.9,12.75-21.2,12.75-21.2l8.43,3.74-8.05,18L379,230l8.7-17.21,8.25,4.47-6.55,19.31,9.64,11.82c-5,7.63-11.7,14.73-11.83,15.54-.18,1.09-.91,7.48-.91,7.48l-43-13.32Z" style="fill:#008080;stroke:#263238;stroke-linecap:round;stroke-linejoin:round"></path><path d="M346,250.6l41.18,14c-.26,2-.8,6.74-.8,6.74l-43-13.32Z" style="fill:#263238;stroke:#263238;stroke-linecap:round;stroke-linejoin:round"></path><path d="M399.11,185s3.58-2.34,3.74,1.55-8.42,7-8.42,7Z" style="fill:none;stroke:#263238;stroke-linecap:round;stroke-linejoin:round"></path><path d="M369.66,174.85s-3.12-3.28-3.43,0,1.71,8.72,1.71,8.72Z" style="fill:none;stroke:#263238;stroke-linecap:round;stroke-linejoin:round"></path><path d="M391.32,158.64s10.12,6.23,10.75,12.93-1.56,9.2-3,13.41-6.55,13.4-15.43,17.45-13.24-7.79-14.18-11.22-2.18-7-1.25-11.84,2.5-14.5,9.82-19.79S391.32,158.64,391.32,158.64Z" style="fill:#fff;stroke:#263238;stroke-linecap:round;stroke-linejoin:round"></path><path d="M392.41,164.25s-9.2,10-16.52,10.6-9.82-.31-7.32-7.17,13.4-13.25,19.32-13.4a6.47,6.47,0,0,1,6.85,5.14s6.39,3.74,8.11,9.51-2,15.27-3.74,16-2-4.06-2-4.06-1.4-.93-1.56-6.85S395.06,164.72,392.41,164.25Z" style="fill:#263238;stroke:#263238;stroke-linecap:round;stroke-linejoin:round"></path><path d="M383.37,189.34a3.61,3.61,0,0,1-3.9.31c-2.33-1.09-1.55-2.18-1.55-2.18" style="fill:none;stroke:#263238;stroke-linecap:round;stroke-linejoin:round"></path><path d="M376.67,191.52a8,8,0,0,0,6.51,1.19s-3,4.8-4.31,4S376.67,191.52,376.67,191.52Z" style="fill:#263238;stroke:#263238;stroke-linecap:round;stroke-linejoin:round"></path><path d="M392.41,184.2s.31-3.74-5.77-1.87" style="fill:none;stroke:#263238;stroke-linecap:round;stroke-linejoin:round"></path><path d="M377.6,180.92s-1.09-4-3.89-3.74" style="fill:none;stroke:#263238;stroke-linecap:round;stroke-linejoin:round"></path><path d="M394.43,181.39s-1.71-4.83-6.07-4.21" style="fill:none;stroke:#263238;stroke-linecap:round;stroke-linejoin:round"></path><path d="M380.25,175s-1.56-3-6.54-1.56" style="fill:none;stroke:#263238;stroke-linecap:round;stroke-linejoin:round"></path><path d="M358,247.31h0a6.92,6.92,0,0,0,6.92-6.92L362.8,223h-9.69L351,240.39A6.92,6.92,0,0,0,358,247.31Z" style="fill:#fff;stroke:#263238;stroke-linecap:round;stroke-linejoin:round"></path><path d="M364.18,234.52l.7,5.87a6.93,6.93,0,0,1-13.85,0l.7-5.87Z" style="fill:#008080;stroke:#263238;stroke-linecap:round;stroke-linejoin:round"></path><line x1="357.96" y1="247.31" x2="357.96" y2="263.93" style="fill:none;stroke:#263238;stroke-linecap:round;stroke-linejoin:round"></line><polygon points="357.96 263.93 368.53 266.43 347 266.43 357.96 263.93" style="fill:#fff;stroke:#263238;stroke-linecap:round;stroke-linejoin:round"></polygon><path d="M396,217.24s9.5,1.8,12.78,10.56,7.29,58.72,5.47,59.09-45.41-29.37-45.41-29.37-5.29,1.83-7.48,1.83-4.56.18-6.38-1.46-.73-3.1-.92-3.65-2.73-2-2-4-.37-1.46.73-2,11.67-1.46,12.76-.91,7.12,6.38,7.12,6.38l25.71,10.95-1.64-29.55" style="fill:#fff;stroke:#263238;stroke-linecap:round;stroke-linejoin:round"></path><line x1="398.37" y1="264.64" x2="407.67" y2="268.65" style="fill:#fff;stroke:#263238;stroke-linecap:round;stroke-linejoin:round"></line></g><g id="freepik--character-2--inject-76"><path d="M238.57,193.87c-.8-1.79-7.86-29.18-11.5-41.37s-10.91-37.66-11.34-43.23-7.06-7.06-7.7-5.13a47.22,47.22,0,0,0-2.22,9l-2.4-.88s-2-.29-2.77.44-1.31,3.06-.58,4.08,2.91-2.18,2.91-2.18l3.34,1.25c1.72,1.29,5.14,3.64,5.14,3.64s4.28,36.17,5.56,44.3,5.14,21.18,8.78,34,6.82,24,6.82,24l12.22-16.07S239.37,195.65,238.57,193.87Z" style="fill:#fff;stroke:#263238;stroke-linecap:round;stroke-linejoin:round"></path><path d="M207.25,101.53h0a7.46,7.46,0,0,1-7.46-7.45L202,75.35h10.43l2.24,18.73A7.46,7.46,0,0,1,207.25,101.53Z" style="fill:#fff;stroke:#263238;stroke-linecap:round;stroke-linejoin:round"></path><path d="M200.55,87.77l-.76,6.31a7.46,7.46,0,0,0,14.91,0l-.76-6.31Z" style="fill:#008080;stroke:#263238;stroke-linecap:round;stroke-linejoin:round"></path><line x1="207.25" y1="101.53" x2="207.25" y2="119.42" style="fill:none;stroke:#263238;stroke-linecap:round;stroke-linejoin:round"></line><polygon points="207.25 119.42 195.86 122.11 219.04 122.11 207.25 119.42" style="fill:#fff;stroke:#263238;stroke-linecap:round;stroke-linejoin:round"></polygon><path d="M215.73,109.27s-1.68-5-2.85-6.13-5.68-2.34-8-3.94-4.66-3.35-4.66-1.75a5.24,5.24,0,0,0,2.47,4.23l4.37,2.62s2,8.45,3.5,9.47a13.73,13.73,0,0,0,3.79,1.6" style="fill:#fff;stroke:#263238;stroke-linecap:round;stroke-linejoin:round"></path><path d="M204.28,103s-4.22,1.17-3.78,2.33,4.66,2.91,6,3.35,1.31-2,1.31-2l-.73-2.33Z" style="fill:#fff;stroke:#263238;stroke-linecap:round;stroke-linejoin:round"></path><path d="M203,107.65s-3.64.88-1.6,2.92,6.85,3.64,7.43,2.62-.87-2.62-1.46-2.92-.87-1.6-.87-1.6Z" style="fill:#fff;stroke:#263238;stroke-linecap:round;stroke-linejoin:round"></path><path d="M241.56,153.78s-1.79-3.23,0-5.2,3.05,0,3.05,0,1.07-5.55,3.22-5.37a5,5,0,0,1,3.41,2s1.07-12,9-10.75S266.83,145,266.83,145s2.86-2,3.94-.18.71,4.84.71,4.84,3.59-3,5-.18-.54,8.24-.54,8.24-11.82-5.91-18.09-5S244.79,155.39,241.56,153.78Z" style="fill:#fff;stroke:#263238;stroke-linecap:round;stroke-linejoin:round"></path><path d="M260.38,142.22c0,1.53-1,2.78-2.15,2.78s-2.15-1.25-2.15-2.78,1-2.78,2.15-2.78S260.38,140.69,260.38,142.22Z" style="fill:#008080;stroke:#263238;stroke-linecap:round;stroke-linejoin:round"></path><path d="M269.51,147.77a1.35,1.35,0,1,1-1.34-1.52A1.45,1.45,0,0,1,269.51,147.77Z" style="fill:#008080;stroke:#263238;stroke-linecap:round;stroke-linejoin:round"></path><path d="M249.27,147.68a1.36,1.36,0,1,1-1.35-1.52A1.44,1.44,0,0,1,249.27,147.68Z" style="fill:#008080;stroke:#263238;stroke-linecap:round;stroke-linejoin:round"></path><polygon points="296.92 308.75 272.74 273.45 271.66 293.34 291.01 309.64 296.92 308.75" style="fill:#263238;stroke:#263238;stroke-linecap:round;stroke-linejoin:round"></polygon><path d="M254.46,152s-6.09-4.3-12.9,1.8-5.91,16.3-3.76,25.08,17.2,20.24,15.59,27.95-4.66,32.42-.54,49.44,30.82,14.69,34.4,8.24-.9-8.06,3.4-12.9,19.89-8.06,15.23-22-14.33-16.13-20.42-21.5-5-14.15-2.87-19,4.84-15-.18-25.26S263.6,145.71,254.46,152Z" style="fill:#263238;stroke:#263238;stroke-linecap:round;stroke-linejoin:round"></path><path d="M252.49,345.83s1.62,28.67,3.77,35.83,30.45,67.54,30.63,68.26-3.76,12.18-5.55,16.48-1.26,9.68.18,9.86,8.42-5.56,10.57-9.68,1.43-13.08,1.43-15.58-6.09-24-7.17-30.64-1.07-17.74-5.19-29.92-5.91-14.33-5.91-14.33l4.83-36Z" style="fill:#fff;stroke:#263238;stroke-linecap:round;stroke-linejoin:round"></path><path d="M293,464c-2,2.71-3.85,4.93-5.19,4.93-1.62,0-6.45-2.51-6.45-2.51-1.79,4.3-1.26,9.68.18,9.86s8.42-5.56,10.57-9.68A10.85,10.85,0,0,0,293,464Z" style="fill:#008080;stroke:#263238;stroke-linecap:round;stroke-linejoin:round"></path><path d="M223.29,345.65a283.61,283.61,0,0,0,7,46.76c5.73,23.11,15.05,60,15.23,60.74s-2.51,17-.72,21.31,4.12,4.3,6.45-1.61-.18-12.72-.54-19.17-2.69-39.77-2.51-58.4-1.79-47.84-1.79-48.37S223.29,345.65,223.29,345.65Z" style="fill:#fff;stroke:#263238;stroke-linecap:round;stroke-linejoin:round"></path><path d="M244.18,470a13.23,13.23,0,0,0,.61,4.45c1.79,4.3,4.12,4.3,6.45-1.61a13.18,13.18,0,0,0,.71-2.58Z" style="fill:#008080;stroke:#263238;stroke-linecap:round;stroke-linejoin:round"></path><path d="M209.5,311.79s0,15.59.53,23.29.9,12.9.9,12.9-1.08.36,22.39,3.4,58.41-7.52,58.41-7.52l-7.17-31.71s-38-.9-55-2.33-20.6-1.07-20.6-1.07Z" style="fill:#263238;stroke:#263238;stroke-linecap:round;stroke-linejoin:round"></path><path d="M245.41,203.81s-21.76,19.84-23.73,28.26,0,11.82,0,11.82l-16,70.95s7.17,3.76,12.72,2.86,8.6-4.83,13.8-1.43,12,7.52,15.94,6.09,7.17-4.84,11.47-2.87,8.6,4.84,14.33,2,8.24-4.66,10-4.12a11.31,11.31,0,0,0,2.87.53s-13.44-50.34-14-57.15-.72-14.15-.72-14.15,8.6-7,10.39-23.47S267,204.3,264.68,203.76,250.88,200.64,245.41,203.81Z" style="fill:#fff;stroke:#263238;stroke-linecap:round;stroke-linejoin:round"></path><line x1="225.44" y1="244.61" x2="266.83" y2="246.94" style="fill:none;stroke:#263238;stroke-linecap:round;stroke-linejoin:round"></line><path d="M227.41,245.15s-6.09,30.27-6.45,48.73" style="fill:none;stroke:#263238;stroke-linecap:round;stroke-linejoin:round"></path><path d="M229.74,252.13s-2.33,24.9,4.3,49.63" style="fill:none;stroke:#263238;stroke-linecap:round;stroke-linejoin:round"></path><path d="M264.5,247.12s.53,11.64,1.43,15.76" style="fill:none;stroke:#263238;stroke-linecap:round;stroke-linejoin:round"></path><path d="M252.84,159.25s-9.36,4.68-12.63,12.16-2.58,19.18-1.64,22.46,2.25,6,3.65,6,3.6.28,3.6.28-2.1,15-.47,17.31,5.38,3.27,11.7-.94,8.65-9.35,8.89-10.29-3-13.1-3-13.1l4-3.51s4.68-1.16,7.25-4,3-5.38,1.41-6.32-5.15,1.17-5.15,1.17a9.81,9.81,0,0,0-2.57-7.25c-3-3.27-5.38-4-9.12-8.18A52,52,0,0,0,252.84,159.25Z" style="fill:#fff;stroke:#263238;stroke-linecap:round;stroke-linejoin:round"></path><path d="M248.16,168.14s-12.4-4.92-14.27-1.64,4.21,8.42,6.32,8.89,7.48-4.45,8.18-5.15,3.28.24,3.28,1.41,0,5.14,3.74,6.08,12.16-1.64,13.33-7.25-15.67-3-17.31-2.81Z" style="fill:#fff;stroke:#263238;stroke-linecap:round;stroke-linejoin:round"></path><path d="M245.85,169s-6.24-2.76-8.56-2-.73,3.63.43,5.23a4,4,0,0,0,5.37.72C244.83,171.74,246.87,169.85,245.85,169Z" style="fill:#008080;stroke:#263238;stroke-linecap:round;stroke-linejoin:round"></path><path d="M253,169.56s.29,5.52,3.19,6.1,9.44-1.45,10-4.65S261.67,167.53,253,169.56Z" style="fill:#008080;stroke:#263238;stroke-linecap:round;stroke-linejoin:round"></path><path d="M248.39,170.24s-3.56,4.4-5.44,5.27-4.21.44-2.62,1.75a9.94,9.94,0,0,0,3.78,1.74" style="fill:none;stroke:#263238;stroke-linecap:round;stroke-linejoin:round"></path><path d="M243.09,182a9.83,9.83,0,0,0,3.2.88c1.74.14,6.24-1.89,6.24-1.89s-1,4.93-5.37,6.38S243.09,182,243.09,182Z" style="fill:#263238;stroke:#263238;stroke-linecap:round;stroke-linejoin:round"></path><path d="M242.22,199.9a70,70,0,0,0,7.55-2c3.34-1.16,8.13-3.48,8.13-3.48s-8.57,7-10.16,8.13a7.15,7.15,0,0,1-2.33,1.3l.41-3.63A8.45,8.45,0,0,1,242.22,199.9Z" style="fill:#263238;stroke:#263238;stroke-linecap:round;stroke-linejoin:round"></path><path d="M245.41,203.81s-9.22,10-12.8,18-.54,27.06,2.33,34,14,31.18,29.38,45.33,22.57,21.86,22.57,21.86l10-14.33a236.65,236.65,0,0,1-26.33-29.21c-12.54-16.66-24.19-38-26.16-54.46S245.41,203.81,245.41,203.81Z" style="fill:#008080;stroke:#263238;stroke-linecap:round;stroke-linejoin:round"></path><path d="M273.81,196.06s-8.6,12.9-9.31,20.24,4.65,14.51,9.49,15.23,6.09-2,8.6-8.42,6.27-25.8,8.42-41.57,8.24-47.29,8.24-57.5a99.36,99.36,0,0,1,2.87-21.32s5.55-3.77,9.14-5,11.28-5.91,8.95-5.55a33,33,0,0,0-6.09,2s4.66-6.27,5.38-9-.54-1.79-1.44-1.79,0-2.87-1.61-2.15a76.06,76.06,0,0,0-11.82,8.24c-3.94,3.4-7,10.75-7,10.75s-10.93,34.93-13.08,44.43-4.12,27.77-4.12,27.77S276.5,188.89,273.81,196.06Z" style="fill:#fff;stroke:#263238;stroke-linecap:round;stroke-linejoin:round"></path><path d="M301.76,95.73s6.27-4.3,8.06-5.55,3.76-1.44,2.33.71a22,22,0,0,1-4.3,4.3,11.63,11.63,0,0,1-1.79,3.58c-1.25,1.62-4.84,2.15-4.84,2.15" style="fill:#fff;stroke:#263238;stroke-linecap:round;stroke-linejoin:round"></path><line x1="318.06" y1="83.37" x2="311.08" y2="88.92" style="fill:#fff;stroke:#263238;stroke-linecap:round;stroke-linejoin:round"></line><line x1="317.88" y1="87.85" x2="311.26" y2="93.76" style="fill:#fff;stroke:#263238;stroke-linecap:round;stroke-linejoin:round"></line><path d="M234.25,240.35,247,236.63l.85,2.93a5.6,5.6,0,0,1,.25,1.57,2.71,2.71,0,0,1-.27,1.23,2.57,2.57,0,0,1-.82.92,4.57,4.57,0,0,1-1.37.62,4.49,4.49,0,0,1-1.42.2,2.09,2.09,0,0,1-1.08-.33,2.25,2.25,0,0,1-.73-.91,2.86,2.86,0,0,1-.23,1.41,2.49,2.49,0,0,1-.87,1,4.75,4.75,0,0,1-1.5.68,6,6,0,0,1-1.55.25A3.19,3.19,0,0,1,237,246a2.83,2.83,0,0,1-1-.81,4.07,4.07,0,0,1-.69-1.4Zm1.8,1.41.35,1.19q.34,1.2,1,1.44a3.31,3.31,0,0,0,1.93-.12,3.91,3.91,0,0,0,1.28-.61,1.62,1.62,0,0,0,.62-.91,2.52,2.52,0,0,0-.08-1.34l-.31-1Zm6.17-1.8.3,1.06a2.91,2.91,0,0,0,.56,1.12,1.23,1.23,0,0,0,.86.4,4,4,0,0,0,1.28-.18,2.45,2.45,0,0,0,1.2-.64,1.29,1.29,0,0,0,.25-1,8.65,8.65,0,0,0-.33-1.52l-.12-.42Z" style="fill:#263238"></path><path d="M237.25,250.47a1.61,1.61,0,0,1,0-1,2.24,2.24,0,0,1,.56-.9,2.35,2.35,0,0,1,.92-.59,3.46,3.46,0,0,1,1.5-.21,3,3,0,0,1,1.24.42,5.91,5.91,0,0,1,1.09.89c.34.36.69.75,1.05,1.16l.63-.22a7.17,7.17,0,0,0,.88-.38.93.93,0,0,0,.44-.44.87.87,0,0,0,0-.65,1,1,0,0,0-.35-.49.83.83,0,0,0-.55-.15,2.41,2.41,0,0,0-.7.14l-.45.16-.52-1.66a3.43,3.43,0,0,1,2.43-.09,2.73,2.73,0,0,1,1.41,1.77,2.32,2.32,0,0,1-.06,2.14,3.58,3.58,0,0,1-1.91,1.3l-4.09,1.43c-.28.1-.55.2-.8.31l-.7.31-.6.29-.54-1.52.59-.33a7,7,0,0,1,.66-.34,2.53,2.53,0,0,1-1.2-.26A1.68,1.68,0,0,1,237.25,250.47Zm1.65.15a1,1,0,0,0,.3.42,2.4,2.4,0,0,0,.46.27,1.5,1.5,0,0,0,.37.13l2.54-.89c-.24-.2-.47-.4-.69-.57a4,4,0,0,0-.67-.44,1.91,1.91,0,0,0-.68-.21,1.61,1.61,0,0,0-.74.09,1.73,1.73,0,0,0-.78.5A.7.7,0,0,0,238.9,250.62Z" style="fill:#263238"></path><path d="M240.1,258.16a2.91,2.91,0,0,1-.21-1.82,2.29,2.29,0,0,1,.93-1.23,8.11,8.11,0,0,1,1.77-.92l2-.81a9,9,0,0,1,2-.56,2.3,2.3,0,0,1,1.51.28,2.91,2.91,0,0,1,1.06,1.46,3.09,3.09,0,0,1,.28,1.61,1.74,1.74,0,0,1-.64,1.1,5.93,5.93,0,0,1-1.46.81l-.52.2-.59-1.48.54-.21a4.73,4.73,0,0,0,.88-.44.87.87,0,0,0,.38-.47.94.94,0,0,0-.07-.62,1,1,0,0,0-.42-.54,1,1,0,0,0-.73,0,8,8,0,0,0-1.21.4l-2.78,1.1a3.69,3.69,0,0,0-1.43.82.86.86,0,0,0-.08.91.91.91,0,0,0,.43.53,1.13,1.13,0,0,0,.64,0,7.56,7.56,0,0,0,.82-.26l.71-.29.59,1.48-.61.24a5.18,5.18,0,0,1-1.61.4,1.87,1.87,0,0,1-1.27-.34A3,3,0,0,1,240.1,258.16Z" style="fill:#263238"></path><path d="M242,262.49l12-5.78.77,1.58-4.32,2.09a5.06,5.06,0,0,1,1.17.62,2.62,2.62,0,0,1,.87,1,1.18,1.18,0,0,1,.11.9,1.61,1.61,0,0,1-.48.71,3.44,3.44,0,0,1-.76.5l-6.93,3.34-.76-1.58,6.46-3.12a1.77,1.77,0,0,0,.65-.48.62.62,0,0,0,0-.66,1.34,1.34,0,0,0-.45-.51,3.14,3.14,0,0,0-.67-.38l-6.86,3.32Z" style="fill:#263238"></path><path d="M246.7,271.82a2.93,2.93,0,0,1-.49-1.71,2.3,2.3,0,0,1,.68-1.37,7.48,7.48,0,0,1,1.68-1.25l1.88-1.09a7,7,0,0,1,1.94-.84,2.17,2.17,0,0,1,1.52.11,3,3,0,0,1,1.23,1.25,2.68,2.68,0,0,1,.46,1.78,2.46,2.46,0,0,1-.86,1.36,11.5,11.5,0,0,1-1.83,1.27l-.67.39-1.88-3.24-1.64.95a3.18,3.18,0,0,0-.76.57,1,1,0,0,0-.29.56,1,1,0,0,0,.16.62.87.87,0,0,0,.47.43,1,1,0,0,0,.6,0,4.62,4.62,0,0,0,.76-.36l.5-.29.85,1.48-.31.18a3.73,3.73,0,0,1-2.25.61A2.43,2.43,0,0,1,246.7,271.82Zm4.49-3.82,1,1.75.74-.43a6.93,6.93,0,0,0,.83-.56,1.06,1.06,0,0,0,.39-.54.92.92,0,0,0-.15-.66.94.94,0,0,0-.5-.46,1.14,1.14,0,0,0-.73.07,8.51,8.51,0,0,0-1.15.57Z" style="fill:#263238"></path><path d="M249.29,275.83l11.18-7.21.95,1.48-11.17,7.21Z" style="fill:#263238"></path><path d="M252.81,281.31a2.9,2.9,0,0,1-.61-1.6,2.31,2.31,0,0,1,.5-1.41,6.09,6.09,0,0,1,1.37-1.28l2.25-1.59a5.91,5.91,0,0,1,1.67-.86,2.3,2.3,0,0,1,1.49,0,2.88,2.88,0,0,1,1.3,1.11,2.8,2.8,0,0,1,.6,1.6,2.33,2.33,0,0,1-.5,1.4,6.07,6.07,0,0,1-1.37,1.27l-2.25,1.59a6.24,6.24,0,0,1-1.67.87,2.34,2.34,0,0,1-1.48,0A2.79,2.79,0,0,1,252.81,281.31Zm1.06-.75a.8.8,0,0,0,.65.41,1.51,1.51,0,0,0,.78-.25,10,10,0,0,0,.85-.54l2.43-1.72a9.51,9.51,0,0,0,.81-.62,1.54,1.54,0,0,0,.49-.65.78.78,0,0,0-.16-.76.82.82,0,0,0-.66-.41,1.59,1.59,0,0,0-.79.24c-.27.16-.56.34-.85.55L255,278.52c-.29.21-.56.41-.8.62a1.46,1.46,0,0,0-.49.66A.81.81,0,0,0,253.87,280.56Z" style="fill:#263238"></path><path d="M255.7,285.06l7.52-5.79,1.07,1.39-1.06.82a3.11,3.11,0,0,1,1.56.12,2.18,2.18,0,0,1,.88.65.86.86,0,0,0,.07.1.49.49,0,0,1,.08.13l-1.53,1.19a2.54,2.54,0,0,0-.17-.45,2.27,2.27,0,0,0-.27-.44,1.46,1.46,0,0,0-.6-.48,2,2,0,0,0-1-.08l-5.48,4.24Z" style="fill:#263238"></path><path d="M260.68,291.51a2.93,2.93,0,0,1-.78-1.6,2.33,2.33,0,0,1,.44-1.47,7.64,7.64,0,0,1,1.44-1.51l1.67-1.4a7.59,7.59,0,0,1,1.77-1.16,2.26,2.26,0,0,1,1.52-.15,3,3,0,0,1,1.42,1,2.64,2.64,0,0,1,.75,1.67,2.43,2.43,0,0,1-.61,1.49,10.75,10.75,0,0,1-1.59,1.56l-.59.5-2.4-2.87-1.46,1.22a3.6,3.6,0,0,0-.65.68,1,1,0,0,0-.19.61,1,1,0,0,0,.26.58.82.82,0,0,0,.53.34,1,1,0,0,0,.6-.13,3.58,3.58,0,0,0,.68-.48l.44-.37,1.1,1.31-.28.24a3.68,3.68,0,0,1-2.11,1A2.4,2.4,0,0,1,260.68,291.51Zm3.77-4.52,1.29,1.55.66-.55a8.28,8.28,0,0,0,.72-.69,1.11,1.11,0,0,0,.29-.6.89.89,0,0,0-.26-.63.93.93,0,0,0-.57-.37,1.16,1.16,0,0,0-.7.19,8.65,8.65,0,0,0-1,.77Z" style="fill:#263238"></path><path d="M265.39,296.88a2.18,2.18,0,0,1-.59-1.07,1.61,1.61,0,0,1,.13-1,3.23,3.23,0,0,1,.75-1l4.58-4.18-.68-.74.86-.78.68.74,2.05-1.87,1.18,1.3-2.05,1.87,1,1.12-.86.79-1-1.13-4.49,4.1a1.3,1.3,0,0,0-.46.67.83.83,0,0,0,.28.67l.22.21.25.23-1,.87-.46-.4A5.8,5.8,0,0,1,265.39,296.88Z" style="fill:#263238"></path><path d="M269.19,300.8a2.27,2.27,0,0,1-.65-1,1.56,1.56,0,0,1,.08-1,3.44,3.44,0,0,1,.7-1l4.36-4.4-.71-.7.82-.83.71.7,1.95-2,1.25,1.23-1.95,2,1.08,1.07-.82.83-1.08-1.07-4.28,4.31a1.41,1.41,0,0,0-.43.7.8.8,0,0,0,.32.65l.23.2.26.22-.91.92-.48-.37A5.57,5.57,0,0,1,269.19,300.8Z" style="fill:#263238"></path><path d="M273.62,304.62a2.91,2.91,0,0,1-1.06-1.43,2.26,2.26,0,0,1,.15-1.52,7.78,7.78,0,0,1,1.13-1.76l1.37-1.69a7.61,7.61,0,0,1,1.52-1.47,2.3,2.3,0,0,1,1.47-.44,3,3,0,0,1,1.58.75,2.59,2.59,0,0,1,1.06,1.5,2.38,2.38,0,0,1-.32,1.57,11.92,11.92,0,0,1-1.26,1.84l-.49.6-2.9-2.37-1.21,1.48a3.06,3.06,0,0,0-.5.79,1,1,0,0,0-.08.63,1,1,0,0,0,.37.52.87.87,0,0,0,.59.24,1,1,0,0,0,.56-.25,4.66,4.66,0,0,0,.58-.59l.36-.45,1.32,1.08-.22.28a3.76,3.76,0,0,1-1.9,1.36A2.39,2.39,0,0,1,273.62,304.62Zm2.85-5.16,1.56,1.28.54-.66a6.76,6.76,0,0,0,.58-.82,1,1,0,0,0,.17-.64.89.89,0,0,0-.37-.57.93.93,0,0,0-.63-.25,1.06,1.06,0,0,0-.65.32,8,8,0,0,0-.88.95Z" style="fill:#263238"></path></g><g id="freepik--character-1--inject-76"><path d="M128.8,150s-4.24-5.05-6.86-5.05.6,3.64.6,3.64-10.69.6-10.69,2.82a2.3,2.3,0,0,0,2,2.42s-12.31,8.68-15.54,15.75,2.22,6.86,2.22,6.86-5.45,9.29-4,12.11,4.84,3.23,4.84,3.23.2,6.86,3.63,8.48,5.45.81,5.45.81,5.45,3.23,7.88,4.44a7.25,7.25,0,0,0,3.83,1s13.32,3.23,17.56,2.42,7.67-5.45,7.67-5.45,4.64-.81,6.06-2.42a37.65,37.65,0,0,0,3.43-5.66,4.5,4.5,0,0,0,4.44-2.82c1.61-3.23.2-11.3.2-11.3s3.63-1.42,3.63-4.45-3-6.66-3-6.66,4.84-4.24-1-9.48-17.16-9.89-17.16-9.89,3.43-1.82.4-3.23a11,11,0,0,0-7.26-.81c-1,.4,1-2.83-2.22-2.83S128.8,150,128.8,150Z" style="fill:#263238;stroke:#263238;stroke-linecap:round;stroke-linejoin:round"></path><path d="M133.44,329.88s3.69,17.17,3.69,21.3-4.78,38.24-5.21,48.46-5,40.63-5.65,43.24-2.39,21.29-.44,26.51,4.25,8.18,5.87,6.08c3.7-4.78-.65-25.86-.65-25.86s25.86-71.92,29.12-81.7,5-23.69,5-34.33a175.08,175.08,0,0,1,1.08-19.34Z" style="fill:#c2c2c2;stroke:#263238;stroke-linecap:round;stroke-linejoin:round"></path><path d="M131.7,475.47c1.39-1.8,1.64-5.91,1.42-10.34a6.65,6.65,0,0,1-1,2.3c-1.09,1.09-3.26.65-4.78.65s-2-9.77-2-9.77l-.3-3.75c-.3,5.82-.28,12.13.73,14.83C127.79,474.6,130.08,477.57,131.7,475.47Z" style="fill:#263238;stroke:#263238;stroke-linecap:round;stroke-linejoin:round"></path><path d="M162.78,321.84s22.59,23.69,22.38,26.73-51.72,24.12-60,26.51-30.64,14.13-31.29,15.43-5.65,7.82-7,11.95-.22,8-2.39,7.39-4.13-6.3-4.13-10.87,3.48-12.82,3.69-16.08,1.31-4.56,4.57-4.78,5.65,1.31,7.38.87,12-5,22-11.73,30-19.34,30-19.34-15.65-2.61-25.86-14.56S153.43,314.45,162.78,321.84Z" style="fill:#c2c2c2;stroke:#263238;stroke-linecap:round;stroke-linejoin:round"></path><path d="M164.69,347.71a12.53,12.53,0,0,0,2.21-.66" style="fill:none;stroke:#263238;stroke-linecap:round;stroke-linejoin:round"></path><path d="M148,347.92a81.92,81.92,0,0,0,11.37.42" style="fill:none;stroke:#263238;stroke-linecap:round;stroke-linejoin:round"></path><path d="M84.55,409.85c2.17.65,1.08-3.26,2.39-7.39a14.1,14.1,0,0,1,.68-1.71A9.25,9.25,0,0,1,83,399s1.74-11.51,3.26-15.64a15.8,15.8,0,0,1,3.48-5.22,9.91,9.91,0,0,0-1.09,0c-3.26.22-4.35,1.52-4.57,4.78S80.42,394.42,80.42,399,82.38,409.2,84.55,409.85Z" style="fill:#263238;stroke:#263238;stroke-linecap:round;stroke-linejoin:round"></path><path d="M124.36,203.58s-1.3,8.07-1.73,9.23-12.55,1.88-18.61,2.74-10.53,7.22-12.12,11.26S72.28,257,74,261.87s5.62,4.76,11-1.59,20.35-22.51,20.64-23.09,8.08,22.66,8.08,22.66A87.94,87.94,0,0,0,102.14,289c-3,16.31,4,32.61,7.94,37.95s11,10.82,11,10.82,17.17-12,28.57-13.85a44.88,44.88,0,0,1,19.91,1s.15-22.94-3.6-36.51-13.42-31.16-13.42-31.16,4-13.71,4.47-17.89.15-13.85.15-13.85A96.37,96.37,0,0,0,173.56,207c8.23-11.83,14.72-25,15.15-26.69s-25-50.79-25-50.79,1-6.93.29-8.66a37,37,0,0,0-2-3.9,16.61,16.61,0,0,0,.43-5.62c-.28-3.18-.28-4.19-.86-3.47s-1.59,6.5-1.59,6.5-1.59-3.9-2.45-5.92a51.55,51.55,0,0,0-2.45-4.9c-.73-1.3-2.89,1.29-3.18,3.6s-.72,10.39,0,13.57,6.49,11.54,7.07,12.55,11.11,33.18,12.27,36.5,2.59,9.24,2.59,9.24-10.67,16.45-12.26,18.32-1,1.88-4.33,4-10.1,6.06-11.4,7.07-2.6,1.88-2.6,1.88l-3,.57-1.15-7.79Z" style="fill:#c2c2c2;stroke:#263238;stroke-linecap:round;stroke-linejoin:round"></path><line x1="157.12" y1="225.51" x2="159.38" y2="214.18" style="fill:none;stroke:#263238;stroke-linecap:round;stroke-linejoin:round"></line><path d="M156.48,128.42s-3.07-6.46-3.23-7.76a80,80,0,0,0-1.46-8.56c-.81-3.23,2.42-2.1,3.07-.48a33.74,33.74,0,0,1,1.13,5.81s3.56,2.26,4.2,4.2a15.35,15.35,0,0,1,.65,4.21" style="fill:#c2c2c2;stroke:#263238;stroke-linecap:round;stroke-linejoin:round"></path><path d="M151.92,107.19a1.17,1.17,0,0,1,1.7.4,16.24,16.24,0,0,1,1.24,4" style="fill:none;stroke:#263238;stroke-linecap:round;stroke-linejoin:round"></path><path d="M153,104.61s1.39-.6,1.79,1.59a90.85,90.85,0,0,0,3.08,9.44" style="fill:none;stroke:#263238;stroke-linecap:round;stroke-linejoin:round"></path><path d="M139.94,209l-.24,0s.12.14.3.4Z" style="fill:none;stroke:#263238;stroke-linecap:round;stroke-linejoin:round"></path><path d="M157.2,233.74l-.23-.3s-8.37-17.6-9.67-19c-.83-.93-2.79-2.81-4.09-4l-2.36.45a15.62,15.62,0,0,1,1.55,6c.29,5.05-2.6,13-4.76,16.3s-4.91,7.94-4.91,7.94l-10.39-17.46a17.67,17.67,0,0,1-2.83-9.88c-.59.1-1.24.19-2,.28l-9.36,29.82c2.36,6.69,5.49,16,5.49,16A87.94,87.94,0,0,0,102.14,289c-3,16.31,4,32.61,7.94,37.95s11,10.82,11,10.82,17.17-12,28.57-13.85a44.88,44.88,0,0,1,19.91,1s.15-22.94-3.6-36.51-13.42-31.16-13.42-31.16,4-13.71,4.47-17.89C157.12,237.93,157.18,235.85,157.2,233.74Z" style="fill:#008080;stroke:#263238;stroke-linecap:round;stroke-linejoin:round"></path><path d="M128.06,171.19s-9.9,10.08-10.6,11.64.7,5.91.7,5.91-2.78-5.56-4.35-4.34-1.39,4.86.52,7.64a6.56,6.56,0,0,0,5,2.79s2.09,6.43,3.48,8.68,6.28,6.73,7.67,7.25,4.6,0,5.3-.87,6.49-6.2,7.54-9.16,1.91-6.25,1.91-6.25a15.21,15.21,0,0,0,4.34-6.43c1-3.65-.52-5.56-.52-5.56l-3.3,4.86-1.22-6.77a18.51,18.51,0,0,1-5.39-3c-2.6-2.08-6.6-5.56-6.6-5.56s-2.78,3.65-3.82,3.3S128.06,171.19,128.06,171.19Z" style="fill:#c2c2c2;stroke:#263238;stroke-linecap:round;stroke-linejoin:round"></path><path d="M119,185.22c-2.49-.11-2.7.33-2.59,1.08s1.18,5.08,1.94,6.16,4.43,2,6.8,1.51,3.68-1.29,4.32-2.38a19,19,0,0,0,1.3-3.67l.54-1.62S121.45,185.33,119,185.22Z" style="fill:#fff;stroke:#263238;stroke-linecap:round;stroke-linejoin:round"></path><path d="M144.67,185.22c-2.48.11-12.31,1.08-12.31,1.08s.43,1.3.54,1.62a19,19,0,0,0,1.3,3.67c.64,1.09,1.94,1.84,4.32,2.38s6-.43,6.8-1.51,1.84-5.4,2-6.16S147.16,185.11,144.67,185.22Z" style="fill:#fff;stroke:#263238;stroke-linecap:round;stroke-linejoin:round"></path><polygon points="130.74 187.92 132.9 187.92 132.36 186.3 131.28 186.3 130.74 187.92" style="fill:none;stroke:#263238;stroke-linecap:round;stroke-linejoin:round"></polygon><path d="M128.77,187.23s-9.72-1-10.33-.61.3,4.2,1,4.81a8.45,8.45,0,0,0,5.63,1.13,4.47,4.47,0,0,0,3.89-3.48C129.18,188.05,129.9,187.64,128.77,187.23Z" style="fill:#263238;stroke:#263238;stroke-linecap:round;stroke-linejoin:round"></path><path d="M134.92,187.23s9.72-1,10.33-.61-.3,4.2-1,4.81a8.45,8.45,0,0,1-5.63,1.13,4.47,4.47,0,0,1-3.89-3.48C134.51,188.05,133.79,187.64,134.92,187.23Z" style="fill:#263238;stroke:#263238;stroke-linecap:round;stroke-linejoin:round"></path><path d="M128.77,198a7.41,7.41,0,0,0,2.56,1,5.87,5.87,0,0,0,3.38-1.13" style="fill:none;stroke:#263238;stroke-linecap:round;stroke-linejoin:round"></path><path d="M135.09,183.84s4.79-1.63,8,.61" style="fill:none;stroke:#263238;stroke-linecap:round;stroke-linejoin:round"></path><path d="M129.69,184.35s-5-3-9.18-.51" style="fill:none;stroke:#263238;stroke-linecap:round;stroke-linejoin:round"></path><path d="M127.75,201.38A17.52,17.52,0,0,0,132,202.7c1.84.21,4.18-1.83,4.18-1.83s-1.22,3.46-3.77,4.38S127.75,201.38,127.75,201.38Z" style="fill:#263238;stroke:#263238;stroke-linecap:round;stroke-linejoin:round"></path><path d="M112.77,221.75h0a6.92,6.92,0,0,1-6.92-6.92l2.07-17.4h9.7l2.07,17.4A6.92,6.92,0,0,1,112.77,221.75Z" style="fill:#fff;stroke:#263238;stroke-linecap:round;stroke-linejoin:round"></path><path d="M106.55,209l-.7,5.86a6.92,6.92,0,1,0,13.84,0L119,209Z" style="fill:#008080;stroke:#263238;stroke-linecap:round;stroke-linejoin:round"></path><line x1="112.77" y1="221.75" x2="112.77" y2="238.38" style="fill:none;stroke:#263238;stroke-linecap:round;stroke-linejoin:round"></line><polygon points="112.77 238.38 102.19 240.88 123.72 240.88 112.77 238.38" style="fill:#fff;stroke:#263238;stroke-linecap:round;stroke-linejoin:round"></polygon><path d="M102.42,233.92s3.06-5.86,3.6-7.59,6.39-4,8.26-5.47,4.13-2.26,4.93-1.86.53,1.6.26,2.13a12.44,12.44,0,0,0-.66,1.33c-.14.4,1.19,4.53.4,6.26a58.81,58.81,0,0,1-3.6,5.73s3.6-3.17,3.6-1.73c0,1.87-1.6,2.67-3.6,4.26a9.9,9.9,0,0,1-4.8,2.14c-1.6.4-5.59,1.59-5.59,1.59s-5.2,2.93-7.6,7.46-11.32,16-13.32,18.66-8.26,5.06-10.79,5.46-5.73-1.47-3.73-8.93,5.46-6.53,10.79-11.59,20.12-15.19,20.12-15.19Z" style="fill:#c2c2c2;stroke:#263238;stroke-linecap:round;stroke-linejoin:round"></path><path d="M138.55,305.37c6.7,4.17,16.34,10.54,21.4,15.6" style="fill:none;stroke:#263238;stroke-linecap:round;stroke-linejoin:round"></path><path d="M131.27,301s1.3.75,3.37,2" style="fill:none;stroke:#263238;stroke-linecap:round;stroke-linejoin:round"></path></g></svg>