<svg xmlns="http://www.w3.org/2000/svg" viewBox="0 0 500 500"><g id="freepik--background-complete--inject-45"><rect y="382.4" width="500" height="0.25" style="fill:#ebebeb"></rect><rect x="416.78" y="398.49" width="33.12" height="0.25" style="fill:#ebebeb"></rect><rect x="322.53" y="401.21" width="8.69" height="0.25" style="fill:#ebebeb"></rect><rect x="396.59" y="389.21" width="19.19" height="0.25" style="fill:#ebebeb"></rect><rect x="52.46" y="390.89" width="43.19" height="0.25" style="fill:#ebebeb"></rect><rect x="104.56" y="390.89" width="6.33" height="0.25" style="fill:#ebebeb"></rect><rect x="131.47" y="395.11" width="93.68" height="0.25" style="fill:#ebebeb"></rect><path d="M237,337.8H43.91a5.71,5.71,0,0,1-5.7-5.71V60.66A5.71,5.71,0,0,1,43.91,55H237a5.71,5.71,0,0,1,5.71,5.71V332.09A5.71,5.71,0,0,1,237,337.8ZM43.91,55.2a5.46,5.46,0,0,0-5.45,5.46V332.09a5.46,5.46,0,0,0,5.45,5.46H237a5.47,5.47,0,0,0,5.46-5.46V60.66A5.47,5.47,0,0,0,237,55.2Z" style="fill:#ebebeb"></path><path d="M453.31,337.8H260.21a5.72,5.72,0,0,1-5.71-5.71V60.66A5.72,5.72,0,0,1,260.21,55h193.1A5.71,5.71,0,0,1,459,60.66V332.09A5.71,5.71,0,0,1,453.31,337.8ZM260.21,55.2a5.47,5.47,0,0,0-5.46,5.46V332.09a5.47,5.47,0,0,0,5.46,5.46h193.1a5.47,5.47,0,0,0,5.46-5.46V60.66a5.47,5.47,0,0,0-5.46-5.46Z" style="fill:#ebebeb"></path><path d="M298.14,283.52H418.28a8.24,8.24,0,0,1-7.88,8.23c-12.91.58-32.77,2.62-39.07,9.77-11.74,13.31-10.6,60.09,3.46,70.92,4.41,3.4,17.27,10.15,17.27,10.15H324.37s12-6.88,16.18-10.15c14-10.92,14.39-57.67,2.6-70.92-6.06-6.81-24.67-9-37.16-9.7A8.31,8.31,0,0,1,298.14,283.52Z" style="fill:#f5f5f5"></path><path d="M403.4,292.18c-12.2,1-26.83,3.39-32.07,9.34a23.46,23.46,0,0,0-4,6.88H347.18a24,24,0,0,0-4-6.88c-5.26-5.91-20-8.35-32-9.34Z" style="fill:#e6e6e6"></path><polygon points="349.32 283.57 350.95 264.9 327.27 264.9 325.63 283.57 349.32 283.57" style="fill:#ebebeb"></polygon><polygon points="349.32 283.57 350.95 264.9 352.23 264.9 350.59 283.57 349.32 283.57" style="fill:#e0e0e0"></polygon><polygon points="347.07 281.67 348.37 266.8 329.52 266.8 328.22 281.67 347.07 281.67" style="fill:#f0f0f0"></polygon><polygon points="345.62 280.45 346.71 268.03 330.96 268.03 329.88 280.45 345.62 280.45" style="fill:#fafafa"></polygon><polygon points="357 283.52 380.79 283.52 378.15 253.35 354.36 253.35 357 283.52" style="fill:#e6e6e6"></polygon><polygon points="357 283.52 355.86 283.52 353.22 253.35 354.36 253.35 357 283.52" style="fill:#e0e0e0"></polygon><polygon points="359.15 280.44 378.09 280.44 375.99 256.42 357.05 256.42 359.15 280.44" style="fill:#f0f0f0"></polygon><polygon points="360.54 278.46 376.36 278.46 374.61 258.4 358.79 258.4 360.54 278.46" style="fill:#fafafa"></polygon><path d="M368.53,267.43h0a2.76,2.76,0,0,1-3.89,0h0a2.77,2.77,0,0,1,0-3.9h0a2.76,2.76,0,0,1,3.89,0h0A2.75,2.75,0,0,1,368.53,267.43Z" style="fill:#ebebeb"></path><path d="M367.37,270.8h0a2,2,0,0,1,2.85,0h0a2,2,0,0,1-1.43,3.44h0A2,2,0,0,1,367.37,270.8Z" style="fill:#f0f0f0"></path><path d="M195.75,376.42h23.17l-12.18-99.21a8.85,8.85,0,0,0-8.54-7.6H97.1l14.82,106.81Z" style="fill:#f5f5f5"></path><path d="M122.26,376.42H99.09L86.91,277.21a6.58,6.58,0,0,1,6.67-7.6h8a8.85,8.85,0,0,1,8.54,7.6Z" style="fill:#f0f0f0"></path><path d="M130.8,376.3l-4.2-48a4.57,4.57,0,0,0-4-4.13L120.9,324a6.14,6.14,0,0,1-5.34-5.55l-.76-8.75a6.13,6.13,0,0,1,6.11-6.67H82.18a6.13,6.13,0,0,0-6.11,6.67l.77,8.75A6.14,6.14,0,0,0,82.17,324l1.73.22a4.57,4.57,0,0,1,4,4.13l4.19,48a6.78,6.78,0,0,0,6.75,6.18h38.73A6.76,6.76,0,0,1,130.8,376.3Z" style="fill:#e6e6e6"></path><path d="M237.36,316.3A14.59,14.59,0,0,1,251.89,303H218.18a14.59,14.59,0,0,0-14.53,13.31l-3.33,38H234Z" style="fill:#e6e6e6"></path><path d="M266.87,303h-15a14.59,14.59,0,0,0-14.53,13.31l-3.33,38H153.74l-3.33-38A14.57,14.57,0,0,0,135.88,303h-15a6.13,6.13,0,0,0-6.11,6.67l.76,8.75A6.14,6.14,0,0,0,120.9,324l1.72.22a4.57,4.57,0,0,1,4,4.13l4.2,48a6.76,6.76,0,0,0,6.75,6.18H250.23A6.78,6.78,0,0,0,257,376.3l4.2-48a4.56,4.56,0,0,1,4-4.13l1.73-.22a6.16,6.16,0,0,0,5.34-5.56l.76-8.74A6.13,6.13,0,0,0,266.87,303Z" style="fill:#f0f0f0"></path><path d="M171.5,146.18s1-6.34-3.66-10.4-4.22-6.49-2.9-6.8,2.54,3.75,4.57,4.87c0,0,.07-5.8-2-7.93s-3.14-7.63-1.18-7.73,2.17,3.27,2.57,5.65a20.05,20.05,0,0,0,2.6,5.74s.43-5.18,1.76-7.32-2.22-7-.85-9.14,3.81,1.93,3.61,6.5-3.26,9.45-2.54,14.23c0,0,1.34-3.36,2.55-3.66s2.42-2.52,3.24-3.35,1.83,2,0,4.67-6.51,9.71-5.79,15.42Z" style="fill:#e6e6e6"></path><path d="M168.74,143.29l-1.52,9.5a4.83,4.83,0,0,0,4.77,5.59h1.62a4.83,4.83,0,0,0,4.77-5.59l-1.52-9.5Z" style="fill:#f5f5f5"></path><rect x="84.62" y="154.88" width="107.01" height="5.5" style="fill:#e6e6e6"></rect><rect x="89.55" y="134.61" width="4.71" height="20.27" style="fill:#f0f0f0"></rect><rect x="112.35" y="134.61" width="4.71" height="20.27" style="fill:#f0f0f0"></rect><rect x="139.98" y="134.36" width="4.71" height="20.27" transform="translate(-22.47 26.27) rotate(-9.78)" style="fill:#f0f0f0"></rect><rect x="95.39" y="137.28" width="4.71" height="17.6" style="fill:#f0f0f0"></rect><rect x="106.23" y="137.28" width="4.71" height="17.6" style="fill:#f0f0f0"></rect><rect x="133.58" y="137.28" width="4.71" height="17.6" style="fill:#f0f0f0"></rect><rect x="120.5" y="136.98" width="4.71" height="17.6" transform="translate(-28.69 30.12) rotate(-12.53)" style="fill:#f0f0f0"></rect><rect x="101.82" y="133.61" width="2.36" height="21.27" style="fill:#f0f0f0"></rect><rect x="129.87" y="133.61" width="2.36" height="21.27" style="fill:#f0f0f0"></rect><rect x="84.62" y="195.92" width="107.01" height="5.5" transform="translate(276.26 397.34) rotate(180)" style="fill:#e6e6e6"></rect><rect x="181.99" y="175.66" width="4.71" height="20.27" transform="translate(368.7 371.58) rotate(180)" style="fill:#f0f0f0"></rect><rect x="159.2" y="175.66" width="4.71" height="20.27" transform="translate(323.11 371.58) rotate(180)" style="fill:#f0f0f0"></rect><rect x="131.56" y="175.4" width="4.71" height="20.27" transform="translate(234.38 391.12) rotate(-170.22)" style="fill:#f0f0f0"></rect><rect x="176.15" y="178.33" width="4.71" height="17.6" transform="translate(357.02 374.25) rotate(180)" style="fill:#f0f0f0"></rect><rect x="165.32" y="178.33" width="4.71" height="17.6" transform="translate(335.34 374.25) rotate(180)" style="fill:#f0f0f0"></rect><rect x="137.96" y="178.33" width="4.71" height="17.6" transform="translate(280.64 374.25) rotate(180)" style="fill:#f0f0f0"></rect><rect x="151.04" y="178.03" width="4.71" height="17.6" transform="translate(262.62 402.47) rotate(-167.47)" style="fill:#f0f0f0"></rect><rect x="172.07" y="174.65" width="2.36" height="21.27" transform="translate(346.51 370.57) rotate(180)" style="fill:#f0f0f0"></rect><rect x="144.03" y="174.65" width="2.36" height="21.27" transform="translate(290.43 370.57) rotate(180)" style="fill:#f0f0f0"></rect><rect x="94.89" y="179.88" width="22.97" height="15.86" transform="translate(212.76 375.62) rotate(180)" style="fill:#f5f5f5"></rect><rect x="373.2" y="120.17" width="28.12" height="39.79" transform="translate(527.33 -247.19) rotate(90)" style="fill:#ebebeb"></rect><rect x="375.03" y="122.05" width="24.45" height="36.05" transform="translate(527.33 -247.19) rotate(90)" style="fill:#f5f5f5"></rect><rect x="359.4" y="155.5" width="28.12" height="39.79" transform="translate(548.85 -198.06) rotate(90)" style="fill:#ebebeb"></rect><rect x="361.23" y="157.37" width="24.45" height="36.05" transform="translate(548.85 -198.06) rotate(90)" style="fill:#f5f5f5"></rect><rect x="334.5" y="118.3" width="25.32" height="35.83" transform="translate(694.31 272.43) rotate(180)" style="fill:#ebebeb"></rect><rect x="336.15" y="119.99" width="22.02" height="32.46" transform="translate(694.31 272.43) rotate(180)" style="fill:#f5f5f5"></rect><rect x="320.09" y="161.34" width="28.12" height="39.79" transform="translate(668.3 362.46) rotate(180)" style="fill:#ebebeb"></rect><rect x="321.92" y="163.21" width="24.45" height="36.05" transform="translate(668.3 362.46) rotate(180)" style="fill:#f5f5f5"></rect><rect x="299.31" y="127.54" width="22.02" height="31.16" transform="translate(167.2 453.44) rotate(-90)" style="fill:#ebebeb"></rect><rect x="300.75" y="129.01" width="19.15" height="28.22" transform="translate(167.2 453.44) rotate(-90)" style="fill:#f5f5f5"></rect></g><g id="freepik--Shadow--inject-45"><ellipse id="freepik--path--inject-45" cx="250" cy="416.24" rx="193.89" ry="11.32" style="fill:#f5f5f5"></ellipse></g><g id="freepik--plant-1--inject-45"><path d="M73.86,343.9c.21,1.47-3.77,2.44-7,3,.27,2.67,2,5.37,4.5,7.89,3.08-1.74,7.49-4,8.3-3.47s-3.63,3.53-6.45,5.24a59,59,0,0,0,6.39,4.84c1.39-1.29,3-2.43,4-1.81s.73,2.63.24,4.42c3.35,1.95,5.87,3.14,5.87,3.14a67.5,67.5,0,0,0,2.24-9.53c-.17-.33-.34-.67-.49-1-.54-1.26,0-1.79.88-2a33.62,33.62,0,0,0,0-6.87c-3.8-.8-8.42-2.27-6.69-4.55,1-1.37,3-1.53,4.94-1.18a7.9,7.9,0,0,0-.93-1.28c-6.92-7.62-11.74,0-11.74,0-4-3.35-9.66-2.45-10.88,2.79C69.28,343,73.6,342.09,73.86,343.9Z" style="fill:#008080"></path><path d="M73.86,343.9c.21,1.47-3.77,2.44-7,3,.27,2.67,2,5.37,4.5,7.89,3.08-1.74,7.49-4,8.3-3.47s-3.63,3.53-6.45,5.24a59,59,0,0,0,6.39,4.84c1.39-1.29,3-2.43,4-1.81s.73,2.63.24,4.42c3.35,1.95,5.87,3.14,5.87,3.14a67.5,67.5,0,0,0,2.24-9.53c-.17-.33-.34-.67-.49-1-.54-1.26,0-1.79.88-2a33.62,33.62,0,0,0,0-6.87c-3.8-.8-8.42-2.27-6.69-4.55,1-1.37,3-1.53,4.94-1.18a7.9,7.9,0,0,0-.93-1.28c-6.92-7.62-11.74,0-11.74,0-4-3.35-9.66-2.45-10.88,2.79C69.28,343,73.6,342.09,73.86,343.9Z" style="fill:#fff;opacity:0.30000000000000004;isolation:isolate"></path><path d="M82.49,399.89l-1-.08c0-.52,4.1-51.53-7.35-56.34a3.91,3.91,0,0,0-3.47.09c-4.14,2.15-6.12,11.08-6.14,11.17l-1-.21c.09-.38,2.1-9.48,6.65-11.84a4.85,4.85,0,0,1,4.32-.13C86.64,347.64,82.66,397.76,82.49,399.89Z" style="fill:#008080"></path><path d="M83.93,398.79c-.2-2.3-4.87-56.27,3.86-62,2.1-1.37,4-1.67,5.55-.86C97.47,338,98,346.84,98,347.21l-1,.06c0-.09-.53-8.63-4.15-10.45-1.24-.63-2.77-.36-4.55.8-8.24,5.41-3.46,60.52-3.41,61.08Z" style="fill:#008080"></path><path d="M85.24,403.15c-.06-1.76-1.5-43.07,6.46-46.69a5.59,5.59,0,0,1,4.73,0c5.46,2.41,8.83,12.58,9,13l-1,.31c0-.1-3.37-10.18-8.42-12.4a4.56,4.56,0,0,0-3.92,0c-6.1,2.77-6.3,34-5.87,45.74Z" style="fill:#008080"></path><path d="M83.22,401.26l-1-.11c1.4-12.3,4.08-45.07-.3-49a1.71,1.71,0,0,0-1.79-.56c-2.94,1.13-4.72,11.79-5.16,15.8l-1-.11c.17-1.54,1.77-15.08,5.8-16.62a2.66,2.66,0,0,1,2.82.74C88.26,356.48,83.43,399.43,83.22,401.26Z" style="fill:#008080"></path><polygon points="66.53 377.95 102.46 377.95 99.46 418.19 69.53 418.19 66.53 377.95" style="fill:#263238"></polygon><polygon points="77.44 377.95 78.44 418.19 99.46 418.19 102.46 377.95 77.44 377.95" style="fill:#fff;opacity:0.2;isolation:isolate"></polygon><path d="M71.43,363.18c-.38,1-3.17.21-5.36-.57-.75,1.74-.58,4,.07,6.4,2.5,0,6,.08,6.31.71s-3.45.93-5.77,1A40.66,40.66,0,0,0,69,375.92c1.29-.33,2.68-.47,3.07.24S71.57,378,70.66,379c1.4,2.35,2.54,3.95,2.54,3.95a48.12,48.12,0,0,0,4.65-5.11c0-.26,0-.53.05-.8.09-1,.6-1.11,1.21-.91a24,24,0,0,0,2.39-4.22c-2.07-1.79-4.41-4.28-2.57-5.09,1.12-.49,2.35.06,3.46,1a6.74,6.74,0,0,0-.14-1.11c-1.66-7.07-7.24-4-7.24-4-1.33-3.44-5.12-4.81-7.67-2C68.93,361,71.89,362,71.43,363.18Z" style="fill:#008080"></path><path d="M71.43,363.18c-.38,1-3.17.21-5.36-.57-.75,1.74-.58,4,.07,6.4,2.5,0,6,.08,6.31.71s-3.45.93-5.77,1A40.66,40.66,0,0,0,69,375.92c1.29-.33,2.68-.47,3.07.24S71.57,378,70.66,379c1.4,2.35,2.54,3.95,2.54,3.95a48.12,48.12,0,0,0,4.65-5.11c0-.26,0-.53.05-.8.09-1,.6-1.11,1.21-.91a24,24,0,0,0,2.39-4.22c-2.07-1.79-4.41-4.28-2.57-5.09,1.12-.49,2.35.06,3.46,1a6.74,6.74,0,0,0-.14-1.11c-1.66-7.07-7.24-4-7.24-4-1.33-3.44-5.12-4.81-7.67-2C68.93,361,71.89,362,71.43,363.18Z" style="fill:#fff;opacity:0.30000000000000004;isolation:isolate"></path><path d="M98.1,368a13.49,13.49,0,0,0-3.28.69,7.36,7.36,0,0,1-.48-2.38c-.23-7.24,5-4.19,7.69-6.32a5.92,5.92,0,0,1,4.59-1.43,10.24,10.24,0,0,0-.62,1.24,1.14,1.14,0,0,0,.88,1.55,3.29,3.29,0,0,0,2-.25,3.54,3.54,0,0,0,.53-.36,10,10,0,0,1,1,2.43,14,14,0,0,1,.47,3.09,10.42,10.42,0,0,0-1.21.35,1.12,1.12,0,0,0-.46,1.72,5.35,5.35,0,0,0,1.5,1,16.9,16.9,0,0,1-.91,3.39l-.37.06c-.27,0-.53.12-.78.19l-.44.16a1.16,1.16,0,0,0-.68.88,1.15,1.15,0,0,0,.43,1.05,4.34,4.34,0,0,0,.54.33,7.93,7.93,0,0,1-2.87,2.89,28.6,28.6,0,0,1-3.05-1.61c.21-.29.43-.58.63-.88a1.71,1.71,0,0,0,.31-1.14,1.52,1.52,0,0,0-.59-1,1.53,1.53,0,0,0-2.16.28c-.24.36-.5.7-.77,1a19.11,19.11,0,0,1-3.68-3.57l.11,0a11.85,11.85,0,0,1,2-.34,1.56,1.56,0,0,0,1.33-1.72A1.58,1.58,0,0,0,98.1,368Z" style="fill:#008080"></path><path d="M98.1,368a13.49,13.49,0,0,0-3.28.69,7.36,7.36,0,0,1-.48-2.38c-.23-7.24,5-4.19,7.69-6.32a5.92,5.92,0,0,1,4.59-1.43,10.24,10.24,0,0,0-.62,1.24,1.14,1.14,0,0,0,.88,1.55,3.29,3.29,0,0,0,2-.25,3.54,3.54,0,0,0,.53-.36,10,10,0,0,1,1,2.43,14,14,0,0,1,.47,3.09,10.42,10.42,0,0,0-1.21.35,1.12,1.12,0,0,0-.46,1.72,5.35,5.35,0,0,0,1.5,1,16.9,16.9,0,0,1-.91,3.39l-.37.06c-.27,0-.53.12-.78.19l-.44.16a1.16,1.16,0,0,0-.68.88,1.15,1.15,0,0,0,.43,1.05,4.34,4.34,0,0,0,.54.33,7.93,7.93,0,0,1-2.87,2.89,28.6,28.6,0,0,1-3.05-1.61c.21-.29.43-.58.63-.88a1.71,1.71,0,0,0,.31-1.14,1.52,1.52,0,0,0-.59-1,1.53,1.53,0,0,0-2.16.28c-.24.36-.5.7-.77,1a19.11,19.11,0,0,1-3.68-3.57l.11,0a11.85,11.85,0,0,1,2-.34,1.56,1.56,0,0,0,1.33-1.72A1.58,1.58,0,0,0,98.1,368Z" style="fill:#fff;opacity:0.5;isolation:isolate"></path><path d="M100.18,343a8.94,8.94,0,0,1,2-1.08,4.93,4.93,0,0,0-.79-1.46c-3.06-3.91-4.44,0-6.81.06a4,4,0,0,0-3,1.25c.29.11.58.24.87.38a.79.79,0,0,1,.22,1.2,2.29,2.29,0,0,1-1.18.77,3.13,3.13,0,0,1-.43,0,6.64,6.64,0,0,0,.54,1.71,9.5,9.5,0,0,0,1.11,1.83,7.91,7.91,0,0,1,.79-.35.77.77,0,0,1,1,.71,3.74,3.74,0,0,1-.32,1.2,11.75,11.75,0,0,0,2,1.39l.22-.14.49-.24a1.76,1.76,0,0,1,.3-.1.77.77,0,0,1,.74.16.78.78,0,0,1,.24.74c0,.14-.09.27-.14.41a5.49,5.49,0,0,0,2.78.26,19.73,19.73,0,0,0,.89-2.19q-.36-.07-.72-.18a1.19,1.19,0,0,1-.66-.46,1.07,1.07,0,0,1-.14-.8,1.12,1.12,0,0,1,.46-.66,1.08,1.08,0,0,1,.8-.14c.28.08.57.14.86.21a13.1,13.1,0,0,0,.36-3.49l-.07,0a7.11,7.11,0,0,0-1.22.72,1.08,1.08,0,0,1-1.46-.33A1.07,1.07,0,0,1,100.18,343Z" style="fill:#008080"></path><path d="M100.18,343a8.94,8.94,0,0,1,2-1.08,4.93,4.93,0,0,0-.79-1.46c-3.06-3.91-4.44,0-6.81.06a4,4,0,0,0-3,1.25c.29.11.58.24.87.38a.79.79,0,0,1,.22,1.2,2.29,2.29,0,0,1-1.18.77,3.13,3.13,0,0,1-.43,0,6.64,6.64,0,0,0,.54,1.71,9.5,9.5,0,0,0,1.11,1.83,7.91,7.91,0,0,1,.79-.35.77.77,0,0,1,1,.71,3.74,3.74,0,0,1-.32,1.2,11.75,11.75,0,0,0,2,1.39l.22-.14.49-.24a1.76,1.76,0,0,1,.3-.1.77.77,0,0,1,.74.16.78.78,0,0,1,.24.74c0,.14-.09.27-.14.41a5.49,5.49,0,0,0,2.78.26,19.73,19.73,0,0,0,.89-2.19q-.36-.07-.72-.18a1.19,1.19,0,0,1-.66-.46,1.07,1.07,0,0,1-.14-.8,1.12,1.12,0,0,1,.46-.66,1.08,1.08,0,0,1,.8-.14c.28.08.57.14.86.21a13.1,13.1,0,0,0,.36-3.49l-.07,0a7.11,7.11,0,0,0-1.22.72,1.08,1.08,0,0,1-1.46-.33A1.07,1.07,0,0,1,100.18,343Z" style="fill:#fff;opacity:0.30000000000000004;isolation:isolate"></path><path d="M70.9,350.23c-.21,1.47,3.78,2.44,7,3-.26,2.67-2,5.37-4.49,7.89-3.09-1.74-7.49-4-8.3-3.48s3.62,3.53,6.44,5.24a56.77,56.77,0,0,1-6.39,4.84c-1.38-1.29-3-2.42-4-1.81s-.73,2.64-.23,4.42c-3.36,2-5.87,3.15-5.87,3.15a67.5,67.5,0,0,1-2.24-9.53c.17-.34.33-.67.49-1,.54-1.25,0-1.78-.88-2a33.53,33.53,0,0,1-.06-6.86c3.8-.8,8.42-2.28,6.69-4.55-1-1.38-2.95-1.53-4.94-1.19a8.61,8.61,0,0,1,.94-1.28c6.91-7.62,11.74,0,11.74,0,4-3.35,9.66-2.44,10.88,2.79C75.48,349.27,71.16,348.41,70.9,350.23Z" style="fill:#008080"></path><path d="M70.9,350.23c-.21,1.47,3.78,2.44,7,3-.26,2.67-2,5.37-4.49,7.89-3.09-1.74-7.49-4-8.3-3.48s3.62,3.53,6.44,5.24a56.77,56.77,0,0,1-6.39,4.84c-1.38-1.29-3-2.42-4-1.81s-.73,2.64-.23,4.42c-3.36,2-5.87,3.15-5.87,3.15a67.5,67.5,0,0,1-2.24-9.53c.17-.34.33-.67.49-1,.54-1.25,0-1.78-.88-2a33.53,33.53,0,0,1-.06-6.86c3.8-.8,8.42-2.28,6.69-4.55-1-1.38-2.95-1.53-4.94-1.19a8.61,8.61,0,0,1,.94-1.28c6.91-7.62,11.74,0,11.74,0,4-3.35,9.66-2.44,10.88,2.79C75.48,349.27,71.16,348.41,70.9,350.23Z" style="fill:#fff;opacity:0.5;isolation:isolate"></path></g><g id="freepik--Text--inject-45"><path d="M379.38,85.8a.48.48,0,0,1-.42-.23.49.49,0,0,1,.15-.69l26.68-17.11a.49.49,0,0,1,.69.15.5.5,0,0,1-.15.69L379.65,85.72A.56.56,0,0,1,379.38,85.8Z" style="fill:#263238"></path><path d="M120.32,85.52a.53.53,0,0,1-.27-.08L93.81,68.61a.5.5,0,0,1,.54-.84L120.59,84.6a.5.5,0,0,1,.15.69A.48.48,0,0,1,120.32,85.52Z" style="fill:#263238"></path><g style="opacity:0.6000000000000001;isolation:isolate"><path d="M379.38,85.8a.48.48,0,0,1-.42-.23.49.49,0,0,1,.15-.69l26.68-17.11a.49.49,0,0,1,.69.15.5.5,0,0,1-.15.69L379.65,85.72A.56.56,0,0,1,379.38,85.8Z" style="fill:#fff"></path></g><g style="opacity:0.6000000000000001;isolation:isolate"><path d="M120.32,85.52a.53.53,0,0,1-.27-.08L93.81,68.61a.5.5,0,0,1,.54-.84L120.59,84.6a.5.5,0,0,1,.15.69A.48.48,0,0,1,120.32,85.52Z" style="fill:#fff"></path></g><path d="M385.77,118.73a1237.57,1237.57,0,0,1-271.54,0q2-18.12,4-36.23a1200.68,1200.68,0,0,0,263.54,0Q383.78,100.62,385.77,118.73Z" style="fill:#008080"></path><path d="M385.77,118.73a1237.57,1237.57,0,0,1-271.54,0q2-18.12,4-36.23a1200.68,1200.68,0,0,0,263.54,0Q383.78,100.62,385.77,118.73Z" style="fill:#fff;opacity:0.6000000000000001;isolation:isolate"></path><path d="M162.18,98.52q-2.56,6.11-5.19,12.2l-1.92-.15q-1.37-5.13-2.69-10.27-2.13,4.86-4.3,9.71l-2-.16Q144.53,103.4,143,97l1.86.16q1.27,5.24,2.56,10.46c1.49-3.28,3-6.58,4.43-9.87l1.66.13q1.34,5.27,2.71,10.51,2.16-5,4.28-10Z" style="fill:#fff"></path><path d="M164.39,98.67l1.81.13q-.44,6.27-.86,12.53l-1.83-.13Q163.95,104.95,164.39,98.67Z" style="fill:#fff"></path><path d="M170,99.06l1.81.12c-.24,3.66-.47,7.31-.71,11l6.93.43-.09,1.56c-2.93-.17-5.85-.36-8.77-.55Q169.6,105.32,170,99.06Z" style="fill:#fff"></path><path d="M180.77,99.72l1.81.1q-.3,5.49-.61,11c2.31.13,4.62.26,6.93.37,0,.52-.05,1-.07,1.56-2.93-.15-5.85-.3-8.78-.47Z" style="fill:#fff"></path><path d="M201,108.93l-.18,4.34-1.81-.08.18-4.37q-2.37-4.18-4.7-8.39l1.94.08q1.89,3.4,3.79,6.79,2.19-3.22,4.35-6.45l1.8.06Q203.65,104.93,201,108.93Z" style="fill:#fff"></path><path d="M206.35,107.2a6.79,6.79,0,0,1,13.56.41c-.08,3.69-3,6.35-7,6.23S206.21,110.87,206.35,107.2Zm11.74.36a5,5,0,1,0-5.09,4.68A4.76,4.76,0,0,0,218.09,107.56Z" style="fill:#fff"></path><path d="M222.58,108.53q.07-3.57.16-7.14l1.81,0-.15,7.07c-.06,2.78,1.22,4.06,3.52,4.11s3.65-1.2,3.69-4c0-2.36.07-4.71.11-7.07l1.76,0c0,2.38-.07,4.76-.1,7.14,0,3.64-2.11,5.53-5.5,5.47S222.49,112.17,222.58,108.53Z" style="fill:#fff"></path><path d="M253.9,114.25q0-4.57-.05-9.15-2.29,3.83-4.61,7.63h-.84q-2.31-3.78-4.6-7.58c0,3,0,6.06,0,9.09H242q0-6.27.08-12.56h1.49q2.63,4.42,5.29,8.85,2.63-4.41,5.23-8.84h1.49q0,6.27.08,12.55Z" style="fill:#fff"></path><path d="M267.64,111l-6.8.08-1.39,3.15h-1.89q2.87-6.28,5.68-12.6l1.79,0q3,6.24,6,12.47l-1.93,0Zm-.66-1.42q-1.43-3.06-2.83-6.12-1.33,3.09-2.69,6.18Z" style="fill:#fff"></path><path d="M281.5,113.85l-2.85-3.79q-.39,0-.81.06l-3.16.07c0,1.27.05,2.54.08,3.82l-1.83,0-.24-12.55,4.95-.11c3.3-.07,5.34,1.52,5.42,4.25a4,4,0,0,1-2.7,4l3.14,4.14Zm-.26-8.17c-.05-1.8-1.29-2.79-3.61-2.73l-3.09.06c0,1.89.07,3.77.11,5.65l3.1-.06C280.09,108.54,281.29,107.47,281.24,105.68Z" style="fill:#fff"></path><path d="M294.83,113.44l-2.9-3.76c-.25,0-.53,0-.8.06l-3.16.11.12,3.82-1.84,0q-.18-6.27-.37-12.55l4.95-.16c3.3-.11,5.36,1.46,5.47,4.19a4,4,0,0,1-2.67,4.06q1.59,2.05,3.2,4.1Zm-.35-8.18c-.07-1.79-1.33-2.76-3.65-2.69l-3.09.1.18,5.65,3.1-.1C293.36,108.14,294.54,107.06,294.48,105.26Z" style="fill:#fff"></path><path d="M304.11,108.72c.06,1.44.13,2.89.19,4.33l-1.81.08c-.06-1.45-.13-2.91-.19-4.37q-2.71-4-5.39-8l1.94-.07c1.44,2.15,2.89,4.29,4.35,6.44,1.27-2.27,2.54-4.53,3.79-6.8l1.8-.09Q306.47,104.5,304.11,108.72Z" style="fill:#fff"></path><path d="M328.06,111.77c-.2-3-.4-6.09-.61-9.13-1.36,2.63-2.75,5.27-4.14,7.89l-.84.06q-2.54-3.65-5-7.3.24,4.54.5,9.08l-1.76.1q-.33-6.27-.68-12.54l1.49-.08q2.89,4.26,5.82,8.51,2.37-4.58,4.69-9.14l1.49-.09q.42,6.25.83,12.53Z" style="fill:#fff"></path><path d="M342.83,109.17l.12,1.56c-3.09.23-6.19.46-9.29.67q-.44-6.27-.86-12.53c3-.2,6-.42,8.95-.65,0,.52.08,1,.11,1.56-2.38.18-4.76.36-7.14.52l.27,3.85,6.38-.46.12,1.52-6.39.46c.09,1.35.18,2.7.28,4Z" style="fill:#fff"></path><path d="M355.5,100.43c-.1-1.14-1.13-1.84-2.76-1.7a3.89,3.89,0,0,0-3.12,1.68l-1.4-.82a5.7,5.7,0,0,1,4.52-2.39c2.61-.23,4.4.82,4.57,2.8.27,3-2.93,3.47-2.73,5.81l-1.83.15C352.52,103.16,355.68,102.49,355.5,100.43Zm-2.76,8.47a1.18,1.18,0,1,1,1.29,1A1.15,1.15,0,0,1,352.74,108.9Z" style="fill:#fff"></path></g><g id="freepik--plant-2--inject-45"><path d="M417,388l-1,0c0-1.35,1.12-33.05,6.65-38.42,5.7-5.54,12.39-.08,12.46,0l-.64.76c-.25-.2-6.07-4.93-11.13,0C418.09,355.4,417,387.72,417,388Z" style="fill:#008080"></path><path d="M416.53,394.4l-1-.09c0-.39,3.56-38.45-10.22-54.27l.75-.66C420.13,355.53,416.68,392.82,416.53,394.4Z" style="fill:#008080"></path><path d="M416.87,390.33c-.11-1.79-2.77-44.15,7.85-53.91l.68.73c-10.27,9.45-7.56,52.68-7.53,53.12Z" style="fill:#008080"></path><path d="M415.53,390.3c0-.28-.33-28.7-7.84-33a4.72,4.72,0,0,0-4.35-.45c-4.41,1.82-6.75,10.24-6.78,10.33l-1-.27c.1-.36,2.5-9,7.35-11a5.72,5.72,0,0,1,5.23.51c8,4.58,8.34,32.67,8.35,33.87Z" style="fill:#008080"></path><path d="M418.63,390.33c-.05-.91-1.22-22.5,4.91-30.49,1.63-2.14,3.46-3.16,5.42-3,4.37.31,7.76,6.22,7.9,6.47l-.87.49c0-.06-3.26-5.69-7.1-6-1.6-.1-3.14.77-4.56,2.61-5.9,7.71-4.71,29.61-4.7,29.83Z" style="fill:#008080"></path><path d="M417.51,393.32l-1-.08c0-.52,3.84-51.88-2.48-60.43l.8-.6C421.39,341.07,417.67,391.19,417.51,393.32Z" style="fill:#008080"></path><path d="M401.21,361.08s3.92,1.44,2.75,4.85-13.54,9-13.54,9-5.19-4.75-.42-12.48S401.11,358.64,401.21,361.08Z" style="fill:#008080"></path><path d="M401.21,361.08s3.92,1.44,2.75,4.85-13.54,9-13.54,9-5.19-4.75-.42-12.48S401.11,358.64,401.21,361.08Z" style="fill:#fff;opacity:0.2;isolation:isolate"></path><path d="M418.23,354.59s-4.17-.18-4.4,3.42,9,13.53,9,13.53,6.61-2.39,5.19-11.36S419.27,352.38,418.23,354.59Z" style="fill:#008080"></path><path d="M418.23,354.59s-4.17-.18-4.4,3.42,9,13.53,9,13.53,6.61-2.39,5.19-11.36S419.27,352.38,418.23,354.59Z" style="fill:#fff;opacity:0.2;isolation:isolate"></path><path d="M421.76,337.39s-2.78-.3-2.56-2,10.81-6,17.05,1c0,0-4,6.86-9.77,7S421.76,337.39,421.76,337.39Z" style="fill:#008080"></path><path d="M421.76,337.39s-2.78-.3-2.56-2,10.81-6,17.05,1c0,0-4,6.86-9.77,7S421.76,337.39,421.76,337.39Z" style="fill:#fff;opacity:0.2;isolation:isolate"></path><path d="M416.58,333.28s2.52,1.22,3.22-.34-6-10.85-15-8.17c0,0-.24,7.94,4.62,11.07S416.58,333.28,416.58,333.28Z" style="fill:#008080"></path><path d="M416.58,333.28s2.52,1.22,3.22-.34-6-10.85-15-8.17c0,0-.24,7.94,4.62,11.07S416.58,333.28,416.58,333.28Z" style="fill:#fff;opacity:0.2;isolation:isolate"></path><path d="M429.74,359.71s-1.92-1.55.15-2.31,12.23-.54,12.34,9.52c0,0-11.83,2-13.3-1.86S429.74,359.71,429.74,359.71Z" style="fill:#008080"></path><path d="M429.74,359.71s-1.92-1.55.15-2.31,12.23-.54,12.34,9.52c0,0-11.83,2-13.3-1.86S429.74,359.71,429.74,359.71Z" style="fill:#fff;opacity:0.2;isolation:isolate"></path><path d="M405.62,337.14s1.91-1.55-.16-2.31-12.22-.54-12.33,9.52c0,0,11.83,2,13.3-1.86S405.62,337.14,405.62,337.14Z" style="fill:#008080"></path><path d="M405.62,337.14s1.91-1.55-.16-2.31-12.22-.54-12.33,9.52c0,0,11.83,2,13.3-1.86S405.62,337.14,405.62,337.14Z" style="fill:#fff;opacity:0.2;isolation:isolate"></path><path d="M411.87,345.24s.17-1.88-1.35-1.14-6.82,6.45-1.33,11.87c0,0,7.39-5.47,6.06-8.32S411.87,345.24,411.87,345.24Z" style="fill:#008080"></path><path d="M411.87,345.24s.17-1.88-1.35-1.14-6.82,6.45-1.33,11.87c0,0,7.39-5.47,6.06-8.32S411.87,345.24,411.87,345.24Z" style="fill:#fff;opacity:0.2;isolation:isolate"></path><path d="M431.46,347.93s-1.15-1.51.53-1.69,9.2,1.82,7.45,9.33c0,0-9.17-.69-9.56-3.81S431.46,347.93,431.46,347.93Z" style="fill:#008080"></path><path d="M431.46,347.93s-1.15-1.51.53-1.69,9.2,1.82,7.45,9.33c0,0-9.17-.69-9.56-3.81S431.46,347.93,431.46,347.93Z" style="fill:#fff;opacity:0.2;isolation:isolate"></path><polygon points="400.48 418.19 431.94 418.19 435.33 383.75 397.09 383.75 400.48 418.19" style="fill:#008080"></polygon><polygon points="400.48 418.19 431.94 418.19 435.33 383.75 397.09 383.75 400.48 418.19" style="fill:#fff;opacity:0.5;isolation:isolate"></polygon><rect x="395.41" y="379.95" width="41.61" height="7.6" transform="translate(832.42 767.5) rotate(180)" style="fill:#008080"></rect><rect x="395.41" y="379.95" width="41.61" height="7.6" transform="translate(832.42 767.5) rotate(180)" style="fill:#fff;opacity:0.2;isolation:isolate"></rect></g><g id="freepik--speech-bubble--inject-45"><rect x="204.09" y="144.51" width="27.93" height="27.93" rx="4.89" transform="translate(30.22 -34.87) rotate(9.82)" style="fill:#008080"></rect><path d="M226.57,154.37c-1.39-3.49-5.32-2.92-7.66-.8-1.5-2.78-5-4.64-7.49-1.82-4.2,4.76,1.7,10.86,4.56,13.34.32.28.59.52.81.7l1-.39C221.32,164,228.93,160.26,226.57,154.37Z" style="fill:#fff;opacity:0.6000000000000001;isolation:isolate"></path><path d="M219,170.62s-5,7.64-13.57,8.82c0,0,4.92-1.81,6.06-10.47Z" style="fill:#008080"></path></g><g id="freepik--character-1--inject-45"><path d="M187.88,167.32s5.52,7.19,2.85,11-3.53,6.81-1.53,10,3.75,6-.81,9.87,2.79,13.88-.49,15.45-30.85,3.1-34.1-.63-3.77-13.46,0-16.08-.47-4.54-.47-8.61,3-3.68,4.87-6.39-1.37-5.42-.63-8.19c.94-3.56,4.26-3,5.66-6.63,2.53-6.56,14.53-9.19,18.93-5.2Z" style="fill:#263238"></path><path d="M183.22,244.34,153.16,243c.73-11.14,1-18.36-3-38.9v-.06a5.54,5.54,0,0,1,4.82-6.54q3.38-.37,6.77-.5a97,97,0,0,1,13.53.33c5.79.71,12.34,2.23,12.34,2.23s.92.35.72,6.55C188.1,212,187.14,223.56,183.22,244.34Z" style="fill:#008080"></path><path d="M188.3,206.15c-.06,1.63-.18,3.72-.4,6.33-.25,3-.66,6.76-1.29,11.32-.76,5.56-1.85,12.33-3.4,20.54L153.16,243a107.41,107.41,0,0,0-.12-20.33c-.4-4-1.08-8.66-2.14-14.49-.23-1.3-.49-2.66-.77-4.09v0a5.53,5.53,0,0,1,4.82-6.55c2.25-.25,4.5-.42,6.77-.5a92,92,0,0,1,10.76.12c.92.06,1.85.13,2.77.21s1.68.22,2.53.35,1.95.31,2.89.48c.18,0,.35.07.53.09h0c3.58.66,6.39,1.31,6.39,1.31S188.52,200,188.3,206.15Z" style="fill:#fff;opacity:0.6000000000000001;isolation:isolate"></path><path d="M168.54,197s-10.34.29-10.93,1,4.84,11.08,15.15,11.08c10.56,0,10.51-8,10.3-8.84S176,197.51,168.54,197Z" style="fill:#e4897b"></path><path d="M187.9,212.48c-.25,3-.66,6.76-1.29,11.32-3.34-6.92-5.37-21.1-5.94-25.6.18,0,.35.07.53.09h0Z" style="opacity:0.2;isolation:isolate"></path><path d="M175.93,200.34c.59,3.27-3.64,4.44-3.64,4.44-6.74-3.16-7.89-6.86-7.89-6.86,3-1.45,4.14-4.47,4.47-7a16.33,16.33,0,0,0,0-4.23l8,4.3a26.21,26.21,0,0,0-1.48,3.46,10,10,0,0,0-.62,3.53C174.81,200,175.93,200.34,175.93,200.34Z" style="fill:#e4897b"></path><path d="M175.25,197.37a1.31,1.31,0,0,1-.52-.15,12.25,12.25,0,0,1,.61-2.79,26.21,26.21,0,0,1,1.48-3.46l-8-4.3a16.33,16.33,0,0,1,0,4.23,36.75,36.75,0,0,0,4.09,5.36h0c-1.57,2.77-5.26,9.26-8.87,14.92-.37.58-9.57-11-9.57-11l-3.61,8c1.06,5.83,1.74,10.48,2.14,14.49,2.92,2.49,6.55,4.32,9.75,2.38,6.3-3.8,13.83-24.18,15-27.37C176.93,197.59,176.08,197.47,175.25,197.37Z" style="opacity:0.2;isolation:isolate"></path><path d="M187.59,199.6c2.91,1.08,9.55,16,8.59,21s-5.66.08-7.79-4.63-3.2-7.43-3.2-7.43Z" style="fill:#e4897b"></path><path d="M178.93,165.05c8,1.58,9.72,6.37,8.68,14.72-1.31,10.43-5,17.29-14.59,13.12C160,187.22,165.66,162.43,178.93,165.05Z" style="fill:#e4897b"></path><path d="M182.53,178.3a16.82,16.82,0,0,0,1.67,3.77,2.23,2.23,0,0,1-2.29.49Z" style="fill:#de5753"></path><path d="M177.77,176.68c-.12.66-.57,1.13-1,1.06s-.7-.68-.58-1.34.56-1.13,1-1.05S177.88,176,177.77,176.68Z" style="fill:#263238"></path><path d="M177,175.35l1.53-.32S177.6,176.12,177,175.35Z" style="fill:#263238"></path><path d="M186,178c-.12.66-.57,1.13-1,1.05s-.71-.67-.59-1.33.56-1.13,1-1.06S186.1,177.31,186,178Z" style="fill:#263238"></path><path d="M185.21,176.63l1.53-.31S185.82,177.4,185.21,176.63Z" style="fill:#263238"></path><path d="M175.08,172.05a.36.36,0,0,1-.24-.64,4.58,4.58,0,0,1,4-.63.37.37,0,0,1,.23.46.36.36,0,0,1-.46.23,3.92,3.92,0,0,0-3.35.5A.4.4,0,0,1,175.08,172.05Z" style="fill:#263238"></path><path d="M187.69,173.64a.33.33,0,0,1-.26-.11,3.44,3.44,0,0,0-2.72-1.25.36.36,0,0,1-.09-.72A4.14,4.14,0,0,1,188,173a.36.36,0,0,1,0,.51A.35.35,0,0,1,187.69,173.64Z" style="fill:#263238"></path><path d="M167.54,176.79s5-5.82,5.47-11c0,0,17.11-3.34,14.71,12.89,0,0,4.37-14-9.3-17s-17.59,17.07-11.68,24.46C166.74,186.14,164.41,180.44,167.54,176.79Z" style="fill:#263238"></path><path d="M182.16,185.21a24.5,24.5,0,0,0-1.74,3.12l-.61-.17c-2.74-.81-3.74-2.09-4-3.26a3.73,3.73,0,0,1,0-1.74,3.79,3.79,0,0,1,.36-.93c1.2,1.29,3.7,2.24,5,2.69C181.8,185.11,182.16,185.21,182.16,185.21Z" style="fill:#263238"></path><path d="M181.23,184.92l-.54.9c-2.58-.76-4.29-1.64-4.87-2.66a3.79,3.79,0,0,1,.36-.93C177.38,183.52,179.88,184.47,181.23,184.92Z" style="fill:#fff"></path><path d="M179.81,188.16c-2.74-.81-3.74-2.09-4-3.26a9.21,9.21,0,0,1,2.87,1.5A3.45,3.45,0,0,1,179.81,188.16Z" style="fill:#de5753"></path><path d="M186,187.11c-2.07,5.94-5.95,8.86-13,5.78a12,12,0,0,1-1.9-1c.17-2,.64-6.41,1.58-7.3l5.53,2.13.7,7s3.46-6.59,5.19-8.12A8.52,8.52,0,0,1,186,187.11Z" style="opacity:0.2;isolation:isolate"></path><path d="M164.4,175.34s2.33-12,12.59-13.9c7.38-1.39,10.89,5.88,10.89,5.88s-12.56-10.88-23.48,9Z" style="fill:#008080"></path><path d="M168.51,178.74a3.58,3.58,0,0,0-3.14-4c-2.53-.22-4.72,4.63,1.2,7.07C167.42,182.21,168.09,181.44,168.51,178.74Z" style="fill:#e4897b"></path><path d="M181.46,199.77l-1-3s-1.52-.77-1.6-1.72,5-9.66,5.25-9.56,2.57,3.46,2.3,5.08-2.82,5.72-2.82,5.72l1.8,3.89Z" style="fill:#e4897b"></path><path d="M174.07,201.44l1.94-2.81a2.35,2.35,0,0,0,1.92-1.33c.64-1.31.09-10-.22-10.48s-4.68-1.87-4.8-1.92-2,7,.4,11.62l-.55,4.92Z" style="fill:#e4897b"></path><path d="M173.31,196.52s-9,16.74-9.57,16.6S154.9,198,153.38,198c0,0-3.67.21-4.38,5s8.38,20.11,12.24,20.66,10.35-15.3,14.77-25Z" style="fill:#e4897b"></path><path d="M187.1,201.44s5.92,8.44,6.08,14.1-8-8.72-8-8.72Z" style="opacity:0.2;isolation:isolate"></path><path d="M180.49,196.78s6.4,24.38,9.91,26.89c3.2,2.29,7.83-2.71,4.79-7.24C190,208.64,183.56,196,183.56,196Z" style="fill:#e4897b"></path><polygon points="168.41 394.5 161.26 394.5 161.86 399.65 162.87 408.2 169.01 408.2 168.65 399.93 168.41 394.5" style="fill:#ebb376"></polygon><path d="M161.56,407.81c0-.68,8.33-.15,8.33-.15S175,412.87,180,414s2.2,4.15-3.36,4.15H162.87C158.92,418.19,161.39,414.83,161.56,407.81Z" style="fill:#263238"></path><path d="M170.82,408.74a.18.18,0,0,1-.07-.05h0a.43.43,0,0,1,0-.07h0a.13.13,0,0,1,0-.06h0a.11.11,0,0,1,0-.08c0-.1.73-2,1.86-2.5a1.25,1.25,0,0,1,1.07,0c.38.18.56.42.55.7,0,.44-.62.88-1.3,1.24a3.44,3.44,0,0,1,1.87.2.92.92,0,0,1,.44.57.78.78,0,0,1-.2.88,1.15,1.15,0,0,1-.73.2A10.46,10.46,0,0,1,170.82,408.74Zm.76-.14c1.23.52,2.75,1,3.14.65,0,0,.14-.11.06-.44a.48.48,0,0,0-.24-.29,2.09,2.09,0,0,0-1-.18A9.75,9.75,0,0,0,171.58,408.6Zm1.15-2.22a3.59,3.59,0,0,0-1.42,1.79c1.23-.47,2.42-1.12,2.44-1.49,0-.12-.18-.23-.3-.28a.85.85,0,0,0-.38-.09A.86.86,0,0,0,172.73,406.38Z" style="fill:#008080"></path><polygon points="161.25 394.5 161.86 399.82 168.65 400.12 168.41 394.5 161.25 394.5" style="opacity:0.2;isolation:isolate"></polygon><polygon points="131.66 400.47 127.93 395.59 134.25 389.5 140 383.96 145.41 389 138.14 395.07 131.66 400.47" style="fill:#ebb376"></polygon><path d="M127.72,394.1c.54-.4,5.17,6.54,5.17,6.54s-1,7.23,1.06,11.89-2,4.26-5.34-.15l-8.35-10.93C117.87,398.31,122,398.23,127.72,394.1Z" style="fill:#263238"></path><path d="M134.46,405.87c-1.05-.24-1.73-3.24-1.86-3.84v-.09h0s0,0,0-.06h0a.13.13,0,0,1,0-.06h0s.05,0,.08,0,2.05-.65,3.11,0a1.28,1.28,0,0,1,.63.87.75.75,0,0,1-.23.86c-.36.25-1.07,0-1.76-.28a3.44,3.44,0,0,1,1,1.61.91.91,0,0,1-.18.69.89.89,0,0,1-.68.4Zm.1-.42s.17,0,.38-.23a.45.45,0,0,0,.09-.36c-.09-.69-1.12-1.69-1.85-2.31C133.51,403.84,134.07,405.33,134.56,405.45Zm-1.21-3.38c1.12.7,2.36,1.25,2.67,1,.1-.07.07-.28,0-.41a.84.84,0,0,0-.42-.58,2,2,0,0,0-1-.21A5.89,5.89,0,0,0,133.35,402.07Z" style="fill:#008080"></path><polygon points="138.14 395.07 134.25 389.5 140 383.96 145.41 389 138.14 395.07" style="opacity:0.2;isolation:isolate"></polygon><path d="M184.35,260.41s18.15,42.9,21,61.73-61.64,69.31-61.64,69.31l-6.59-7s48-49.31,48-57.79-18.71-47.22-18.71-47.22S164.59,263.79,184.35,260.41Z" style="fill:#008080"></path><path d="M171.21,368c-6.59,6.07-13,11.54-17.91,15.68-5.75,4.8-9.58,7.8-9.58,7.8l-6.59-7s6.59-6.76,14.88-15.72c6.52-7,14.1-15.44,20.36-23,7.24-8.72,12.73-16.25,12.73-19.11,0-4.47-5.2-17.35-10.12-28.54-4.41-10-8.59-18.68-8.59-18.68a16.06,16.06,0,0,1,.52-5.3c1.26-4.87,5.25-11.61,17.44-13.71,0,0,18.15,42.91,21,61.73C206.91,332.43,188.35,352.19,171.21,368Z" style="fill:#fff;opacity:0.2;isolation:isolate"></path><path d="M172.37,345.75,171.21,368c-6.59,6.07-13,11.54-17.91,15.68A52.54,52.54,0,0,1,152,368.71C158.53,361.66,166.11,353.27,172.37,345.75Z" style="opacity:0.2;isolation:isolate"></path><path d="M175,298.1c-4.41-10-8.59-18.68-8.59-18.68a16.06,16.06,0,0,1,.52-5.3,6.41,6.41,0,0,1,2.06-.87S174.34,281.68,175,298.1Z" style="opacity:0.2;isolation:isolate"></path><path d="M169.23,273.25l1.18,60.41v61.83H160C135.38,278.34,152.23,249,152.23,249l.06,0a1.09,1.09,0,0,1,.05-.14L153,242l30.1,1.08-.46,5.94c1.86,7.28,2.58,19.61,2.58,19.61Z" style="fill:#008080"></path><polygon points="137.13 382.07 145.76 391.45 141.45 393.92 134.79 386.85 137.13 382.07" style="fill:#008080"></polygon><path d="M169.23,273.25l1.18,60.41v61.83H160C135.38,278.34,152.23,249,152.23,249l.06,0a1.09,1.09,0,0,1,.05-.14L153,242l30.1,1.08-.46,5.94c1.86,7.28,2.58,19.61,2.58,19.61Z" style="fill:#fff;opacity:0.2;isolation:isolate"></path><polygon points="158.63 394 171.49 392.12 170.41 397.26 159.8 398.69 158.63 394" style="fill:#008080"></polygon><polygon points="162.82 247.92 179.71 248.82 180.1 243.74 163.19 243.29 162.82 247.92" style="fill:#263238"></polygon><polygon points="181.59 243.78 181.19 248.9 182.65 248.97 183.32 243.83 181.59 243.78" style="fill:#263238"></polygon><polygon points="161.7 243.25 153.21 243.03 152.64 247.38 161.34 247.84 161.7 243.25" style="fill:#263238"></polygon><path d="M174.78,249.41h-.07l-4.14-.17a1.69,1.69,0,0,1-1.19-.55,1.66,1.66,0,0,1-.46-1.23l.11-2.56a1.65,1.65,0,0,1,.55-1.19,1.68,1.68,0,0,1,1.23-.45l4.14.16a1.72,1.72,0,0,1,1.65,1.79l-.1,2.55a1.74,1.74,0,0,1-1.72,1.65Zm-4-5.16a.75.75,0,0,0-.49.19.73.73,0,0,0-.23.5l-.1,2.56a.69.69,0,0,0,.19.51.73.73,0,0,0,.5.23l4.14.17h0a.7.7,0,0,0,.52-.19.73.73,0,0,0,.23-.5l.1-2.55a.72.72,0,0,0-.69-.75l-4.14-.16Z" style="fill:#fff"></path><path d="M175,247.16h-.06l-2.22-.29a.5.5,0,0,1-.44-.56.51.51,0,0,1,.56-.43l2.22.29a.5.5,0,0,1,.44.56A.51.51,0,0,1,175,247.16Z" style="fill:#fff"></path></g><g id="freepik--character-2--inject-45"><g id="freepik--group--inject-45"><polygon points="270.23 410.97 261.6 412.79 252.38 397.63 261.01 395.81 270.23 410.97" style="fill:#e4897b"></polygon><path d="M259.86,409.14h9.66a.7.7,0,0,1,.68.54l1.57,7.09a1.18,1.18,0,0,1-.91,1.39l-.26,0c-3.12-.05-5.4-.24-9.32-.24-2.42,0-9.72.25-13,.25s-3.78-3.3-2.41-3.6c6.13-1.33,10.74-3.19,12.7-4.95A2,2,0,0,1,259.86,409.14Z" style="fill:#263238"></path><path d="M257.23,410.53a2.37,2.37,0,0,1-1.53-.4,1.09,1.09,0,0,1-.39-1,.56.56,0,0,1,.32-.53c.88-.45,3.45,1.12,3.73,1.31a.15.15,0,0,1,.09.18.18.18,0,0,1-.14.16A9.15,9.15,0,0,1,257.23,410.53Zm-1.18-1.64a.43.43,0,0,0-.25.05c-.05,0-.11.07-.12.22a.79.79,0,0,0,.25.68,3.93,3.93,0,0,0,2.84.14A7.55,7.55,0,0,0,256.05,408.89Z" style="fill:#008080"></path><path d="M259.26,410.25h-.09c-.82-.44-2.41-2.19-2.24-3a.61.61,0,0,1,.6-.5,1,1,0,0,1,.8.24c.92.75,1.11,3,1.12,3.15a.18.18,0,0,1-.09.17A.19.19,0,0,1,259.26,410.25Zm-1.6-3.23h-.09c-.24,0-.26.15-.27.2-.1.51.91,1.84,1.73,2.45a4.41,4.41,0,0,0-.94-2.48A.63.63,0,0,0,257.66,407Z" style="fill:#008080"></path><polygon points="261.01 395.81 252.38 397.63 257.14 405.45 265.77 403.63 261.01 395.81" style="opacity:0.2;isolation:isolate"></polygon><path d="M298.76,359.61c-.47,0-5.72-.05-6.21-.09a141,141,0,0,1-27.88-5.73c-8.13-2.45-13.75-4.72-13.75-4.72-1.87,10.78,15.64,52.15,15.64,52.15l-14.3.89s-40-58.95-22.93-77.32C242,311.07,276.54,326,276.54,326l9-19,38.2,2.19S332,361.38,298.76,359.61Z" style="fill:#263238"></path><polygon points="252.94 403.8 267.18 401.52 265.82 397.65 250.32 400.88 252.94 403.8" style="fill:#008080"></polygon><polygon points="367.01 394.8 367.75 402.72 349.47 405.1 348.73 397.17 367.01 394.8" style="fill:#e4897b"></polygon><path d="M366.94,403.9l-.91-9.62a.71.71,0,0,1,.49-.72l6.9-2.23a1.17,1.17,0,0,1,1.47.77,2.38,2.38,0,0,1,.05.26c.24,3.11.26,5.4.63,9.31.23,2.4,1.16,9.64,1.48,13s-2.93,4.06-3.36,2.73c-1.91-6-4.18-10.4-6.12-12.19A1.92,1.92,0,0,1,366.94,403.9Z" style="fill:#263238"></path><path d="M368.58,406.39a2.43,2.43,0,0,1-.26,1.56,1.14,1.14,0,0,1-1,.49.58.58,0,0,1-.56-.28c-.53-.83.8-3.54.95-3.84a.16.16,0,0,1,.17-.1.2.2,0,0,1,.18.12A9.57,9.57,0,0,1,368.58,406.39Zm-1.53,1.33a.4.4,0,0,0,.07.24c0,.05.08.1.23.1a.76.76,0,0,0,.65-.32,3.85,3.85,0,0,0-.12-2.83A7.54,7.54,0,0,0,367.05,407.72Z" style="fill:#008080"></path><path d="M368.1,404.39v.09c-.36.86-2,2.61-2.81,2.52a.62.62,0,0,1-.55-.56,1,1,0,0,1,.17-.81c.66-1,2.92-1.4,3-1.42a.21.21,0,0,1,.18.08A.12.12,0,0,1,368.1,404.39Zm-3.06,1.9v.09c0,.24.17.24.22.25.52.05,1.74-1.08,2.28-1.95a4.43,4.43,0,0,0-2.39,1.17A.67.67,0,0,0,365,406.29Z" style="fill:#008080"></path><polygon points="348.74 397.17 349.48 405.1 358.91 403.87 358.16 395.94 348.74 397.17" style="opacity:0.2;isolation:isolate"></polygon><path d="M355.92,407.18s-51.56,15.08-64.4,6c-6.31-4.47-8.73-15.8-9.1-28.65a177,177,0,0,1,1.4-26.12c1.67-13.85,4.33-25.24,5.49-26.95,0,0,34.53-1,33.56,7.65s-19.35,53.07-15.31,56.6S355,394,355,394Z" style="fill:#263238"></path><polygon points="353.21 393 354.27 408.89 358.26 407.88 356.46 392.15 353.21 393" style="fill:#008080"></polygon><polygon points="252.94 403.8 267.18 401.52 265.82 397.65 250.32 400.88 252.94 403.8" style="fill:#fff;opacity:0.5"></polygon><polygon points="353.21 393 354.27 408.89 358.26 407.88 356.46 392.15 353.21 393" style="fill:#fff;opacity:0.5"></polygon><path d="M312,350.1c-.29,1-9.67,31.67-29.57,34.41a177,177,0,0,1,1.4-26.12s8.65,1.38,13.55,1.2S310.71,353.38,312,350.1Z" style="opacity:0.2;isolation:isolate"></path><polygon points="279.94 316.33 279.79 319.1 324.53 313.64 324.17 310.16 279.94 316.33" style="fill:#008080"></polygon><polygon points="279.94 316.33 279.79 319.1 324.53 313.64 324.17 310.16 279.94 316.33" style="fill:#fff;opacity:0.6000000000000001;isolation:isolate"></polygon><path d="M277.47,275.71s-21.6,1.83-25.87.6a6.41,6.41,0,0,1-2.36-1.74c-5.52-5.6-15.44-22.47-15.44-22.47l4.6-4.47s13.42,15.58,14.7,16.8c.31.3,1.61.2,3.4-.13,5.72-1,16.55-4.29,16.55-4.29Z" style="fill:#008080"></path><path d="M234.56,231.54s-6.25,11.22-6.59,11.91,2.71,3.6,2.71,3.6l2.91,3.88,3.88-3.05-1.8-3.21s2.91-4.12,3.87-5.86S234.56,231.54,234.56,231.54Z" style="fill:#9f5b53"></path><polygon points="232.1 250.49 237.8 245.66 239.46 248.08 233.19 253.44 232.1 250.49" style="fill:#008080"></polygon><polygon points="232.1 250.49 237.8 245.66 239.46 248.08 233.19 253.44 232.1 250.49" style="fill:#fff;opacity:0.6000000000000001;isolation:isolate"></polygon><path d="M277.47,275.71s-21.6,1.83-25.87.6a6.41,6.41,0,0,1-2.36-1.74,37.7,37.7,0,0,1,7.26-10.27c5.72-1,16.55-4.29,16.55-4.29Z" style="opacity:0.2;isolation:isolate"></path><path d="M230.4,259,227,252.11s-.17-2.6-.88-3.42-14.74-2-14.74-2,.12,7.53,1.3,8.12S224.16,256,224.16,256l2,5.19Z" style="fill:#9f5b53"></path><path d="M269,234.73a20.69,20.69,0,0,1-3.67,3.36,2.7,2.7,0,0,0,2.29,1.64Z" style="fill:#a24e3f"></path><path d="M268.3,233.05c-.19.79.08,1.53.6,1.65s1.1-.4,1.3-1.18-.08-1.53-.6-1.65S268.5,232.27,268.3,233.05Z" style="fill:#2e353a"></path><path d="M267.65,242.78a9.93,9.93,0,0,0,.16,1.22,11.66,11.66,0,0,0,3.19,6.1,11.47,11.47,0,0,0,1.35,1.16,10.46,10.46,0,0,0,12.65.05c4.81-3.5,5.48-8.33,7.28-16.4a11.33,11.33,0,0,0-13.6-13.66C270.15,223.2,267.08,235.15,267.65,242.78Z" style="fill:#9f5b53"></path><path d="M271,250.1a11.47,11.47,0,0,0,1.35,1.16,10.49,10.49,0,0,0,8.86,1.85,12.29,12.29,0,0,0-1-3A16.33,16.33,0,0,0,271,250.1Z" style="opacity:0.2;isolation:isolate"></path><path d="M275.23,249.29c4.13,9.1,2.42,15,2.42,15s10-.92,13.15-5.44c-2.38-1.64-4.28-9.54-5-13.45Z" style="fill:#9f5b53"></path><path d="M281.57,218.11s-1.94-1.67-6.19,1.2c-3.57,2.42-.83,5.27-3.32,8.72s-.56,7.55-.56,7.55,1.16,4.14,4.31,4.4c0,0,2,3.49,1.11,6.61s3.23,6.37,9.47,7.3,4.38-3.36,4.38-3.36a25.87,25.87,0,0,0,5.45-6.27,24.23,24.23,0,0,0,3.35-9.45,13.22,13.22,0,0,0-2.05-10C294.13,219.45,284.62,215.49,281.57,218.11Z" style="fill:#263238"></path><path d="M277.66,238.47a5.36,5.36,0,0,1-3.31,3.17c-1.77.44-2.48-2.08-1.84-4.49.58-2.13,2.2-5,3.91-4.32S278.59,236.37,277.66,238.47Z" style="fill:#9f5b53"></path><path d="M273.1,225.66s-5.17-6.68-1.39-12.37,3.32.54,3.32.54,5.2-2.92,7.5-1.58-2,2.78-2,2.78,17.87-.28,17.61,10.74S273.1,225.66,273.1,225.66Z" style="fill:#263238"></path><path d="M270.67,231.37a.36.36,0,0,1-.32-.18c-.34-.64-.77-.7-.78-.7a.37.37,0,0,1-.32-.4.36.36,0,0,1,.39-.32,1.81,1.81,0,0,1,1.35,1.07.36.36,0,0,1-.14.49A.39.39,0,0,1,270.67,231.37Z" style="fill:#2e353a"></path><path d="M275.23,259a37.51,37.51,0,0,1,15.57-4.14l3.74,3.15Z" style="fill:#008080"></path><path d="M275.23,259a37.51,37.51,0,0,1,15.57-4.14l3.74,3.15Z" style="fill:#fff;opacity:0.6000000000000001;isolation:isolate"></path><path d="M323.81,310.78l-43.92,6.49c-.74-10.4-1.85-20-3.28-28.94-.15-1.05-.33-2.07-.5-3.08-.37-2.21-.91-4.74-1.52-7.35-1.52-6.52-3.48-13.56-4.36-17.47,0,0,16.47-6,29.58-2.64,14.4,3.64,23.37,46.13,24.58,52.17A.69.69,0,0,1,323.81,310.78Z" style="fill:#008080"></path><path d="M276.61,288.33c-.15-1.05-.33-2.07-.5-3.08-.37-2.21-.91-4.74-1.52-7.35,1.12-1,1.54-7.81,2.88-8.17C277.47,269.73,281.21,280.05,276.61,288.33Z" style="opacity:0.2;isolation:isolate"></path><path d="M270.23,260.43c-6.34,1.62-25.21,18-27.09,17.34s-14.39-23-14.39-23L224.2,259s10.13,30.14,15.16,32.34,35.72-11.24,35.72-11.24,3.43-6.19,2.51-11.4C276.11,260.24,270.23,260.43,270.23,260.43Z" style="fill:#008080"></path><polygon points="223.89 261.69 230.97 256.02 228.92 253.42 223.11 257.56 223.89 261.69" style="fill:#008080"></polygon><polygon points="223.89 261.69 230.97 256.02 228.92 253.42 223.11 257.56 223.89 261.69" style="fill:#fff;opacity:0.6000000000000001;isolation:isolate"></polygon><polygon points="216.65 238.49 215.5 239.63 219.39 243.52 223.28 239.63 222.13 238.49 216.65 238.49" style="fill:#008080"></polygon><polygon points="222.13 238.49 223.28 239.63 219.39 243.52 215.5 239.63 216.65 238.49 222.13 238.49" style="fill:#fff;opacity:0.2;isolation:isolate"></polygon><polygon points="219.39 243.52 220.73 239.61 219.39 238.49 219.39 238.49 219.39 238.49 219.39 238.49 219.39 238.49 218.06 239.61 219.39 243.52 219.39 243.52 219.39 243.52 219.39 243.52 219.39 243.52" style="fill:#fff;opacity:0.30000000000000004"></polygon><polygon points="215.5 239.63 223.28 239.63 222.13 238.49 216.65 238.49 215.5 239.63" style="fill:#fff;opacity:0.2"></polygon><polygon points="220.73 239.61 221.45 238.49 223.28 239.63 219.39 243.52 220.73 239.61" style="fill:#fff;opacity:0.1"></polygon><polygon points="218.06 239.61 217.23 238.49 215.5 239.63 219.39 243.52 218.06 239.61" style="fill:#fff;opacity:0.1"></polygon><path d="M213.87,242.44h12.78a0,0,0,0,1,0,0v4.91a2.21,2.21,0,0,1-2.21,2.21h-8.37a2.21,2.21,0,0,1-2.21-2.21v-4.91A0,0,0,0,1,213.87,242.44Z" style="fill:#008080"></path><path d="M226.66,242.44v4.91a2.21,2.21,0,0,1-2.21,2.2h-6a2.21,2.21,0,0,0,2.21-2.2v-4.91Z" style="opacity:0.2;isolation:isolate"></path><path d="M232.79,234.38l-3.67-1.47h-4.77l-3.82,9.58,3.68,1.46a1.81,1.81,0,0,0,.86.11h4.43a1.78,1.78,0,0,0,1.79-1.1l2.5-6.27A1.78,1.78,0,0,0,232.79,234.38Z" style="fill:#008080"></path><path d="M233.78,236.69,231.29,243a1.77,1.77,0,0,1-1.8,1.1h-4.42a1.79,1.79,0,0,0,1.45-1.1l2.5-6.27a1.78,1.78,0,0,0-1-2.31l-3.67-1.47h4.76l3.67,1.47A1.77,1.77,0,0,1,233.78,236.69Z" style="opacity:0.2;isolation:isolate"></path><path d="M210.56,239.63s-.94-4.35,2.22-7.32,6.38-1.14,6.78-.45a5.8,5.8,0,0,1,.25-2.55s-1.44,1.37-2.72.67-2.53-4.15-2.53-4.15.15,3.17-1.28,4.11-6.28-2.08-6.28-2.08,2.82,3.13,2.52,4.78-4.9,2.19-4.9,2.19,4.26.49,4.46,1.73-2,2-2,2A4.83,4.83,0,0,1,210.56,239.63Z" style="fill:#008080"></path><path d="M210.56,239.63s-.94-4.35,2.22-7.32,6.38-1.14,6.78-.45a5.8,5.8,0,0,1,.25-2.55s-1.44,1.37-2.72.67-2.53-4.15-2.53-4.15.15,3.17-1.28,4.11-6.28-2.08-6.28-2.08,2.82,3.13,2.52,4.78-4.9,2.19-4.9,2.19,4.26.49,4.46,1.73-2,2-2,2A4.83,4.83,0,0,1,210.56,239.63Z" style="fill:#fff;opacity:0.6000000000000001;isolation:isolate"></path></g></g></svg>